<?xml version="1.0" encoding="UTF-8"?>
<!DOCTYPE svg PUBLIC "-//W3C//DTD SVG 1.0//EN" "http://www.w3.org/TR/2001/REC-SVG-20010904/DTD/svg10.dtd">
<!-- Creator: CorelDRAW X7 -->
<svg xmlns="http://www.w3.org/2000/svg" xml:space="preserve" width="77.5mm" height="66.5mm" version="1.0" style="shape-rendering:geometricPrecision; text-rendering:geometricPrecision; image-rendering:optimizeQuality; fill-rule:evenodd; clip-rule:evenodd"
viewBox="0 0 7750 6650"
 xmlns:xlink="http://www.w3.org/1999/xlink">
 <defs>
  <style type="text/css">
   <![CDATA[
    .fil0 {fill:#1240AB}
    .fil3 {fill:#4F4F4F}
    .fil2 {fill:#6B6B6B}
    .fil4 {fill:#757575}
    .fil1 {fill:#FDFDFD}
   ]]>
  </style>
 </defs>
 <g id="Слой_x0020_1">
  <metadata id="CorelCorpID_0Corel-Layer"/>
  <path class="fil0" d="M1366 738l-8 8 8 -8z"/>
  <path class="fil1" d="M7593 4450l0 -9c0,0 -56,-204 -91,-281 -41,-90 -79,-160 -133,-241 -93,-139 -233,-293 -368,-385 -65,-44 -94,-67 -168,-106 -46,-25 -94,-47 -142,-68l0 -298c-2,-27 -11,-25 -13,-106 0,-7 0,-13 -1,-19l-26 -144c-5,-40 -4,-1 -11,-35l-11 -54c-8,-27 -7,-63 -17,-88l-17 -48c-4,-15 -2,-18 -7,-32l-35 -97c-2,-7 -2,-8 -4,-14l-4 -10c-1,-1 -1,-3 -2,-5 -2,-5 -3,-8 -5,-14l-17 -49c-6,-23 -3,-15 -13,-33l-16 -42c-1,-1 -2,-3 -2,-5l-15 -30c-1,-1 -2,-3 -3,-4l-16 -37c-9,-19 -18,-37 -28,-56l-23 -43c-1,-1 -2,-3 -2,-4 -1,-1 -2,-3 -3,-4 0,-1 -1,-3 -2,-4l-94 -161c-10,-15 -4,-1 -16,-24 -5,-11 -9,-21 -15,-30l-259 -336 -130 -126c-8,-9 -11,-12 -18,-21l-101 -89c-23,-18 -33,-36 -58,-52l-62 -50c-6,-4 -2,0 -12,-7l-157 -118c-8,-5 -9,-4 -17,-9l-180 -114c-7,-4 -22,-12 -31,-16l-66 -38c-1,-1 -3,-2 -4,-2l-64 -34c-2,-1 -3,-2 -4,-3 -2,0 -3,-1 -5,-2l-123 -53c-7,-4 -11,-7 -17,-10l-75 -29c-1,-1 -3,-1 -5,-2l-177 -71c-7,-3 -8,-3 -15,-5l-586 -140c-51,-1 -21,-12 -71,-13 -51,-1 -36,-1 -75,-11l-161 -9c-142,0 -284,0 -425,0l-162 9c-21,5 -4,6 -29,10 -32,6 -57,-1 -88,10 -2,0 -4,1 -5,1 -20,6 -41,0 -62,4 -37,8 12,5 -34,12 -13,1 -25,-1 -38,1 -38,6 -64,20 -106,25l-185 44c-7,2 -14,4 -20,6l-61 17c-1,1 -3,2 -5,2l-18 8c-37,15 -75,19 -111,33l-43 16c-2,0 -4,1 -5,1 -2,1 -3,1 -5,2l-38 14c-1,1 -3,2 -4,3l-190 78c-1,0 -13,8 -17,9l-119 57c-2,1 -3,2 -5,2l-374 227c-1,1 -3,3 -4,3 -19,14 -15,4 -35,25l-74 56c-14,9 -12,6 -26,20l-48 37c-19,13 -26,30 -68,56l-328 345c-1,2 -2,3 -3,4l-176 242c-1,2 -2,3 -3,4l-142 244c-6,10 -6,17 -11,29l-29 55c-30,54 -48,113 -72,171l-34 109c-2,7 -2,9 -4,15 -1,2 -1,4 -2,5 0,2 -1,4 -2,5l-59 203 -21 155c0,8 0,11 -1,18 -7,31 -1,1 -7,19 -10,28 -2,51 -5,81 -3,45 -13,30 -13,71 0,66 -8,336 1,379 8,37 5,-12 12,34 5,33 -2,65 9,96 2,6 1,-2 4,15 7,55 8,113 25,165l52 196c0,2 1,4 1,5l18 48c5,17 5,23 8,38l15 44c0,1 1,3 2,5l24 54c0,2 1,3 1,5 1,2 1,3 2,5 1,2 3,7 4,9 29,70 15,49 51,119l4 9c1,1 2,3 3,4l58 118c1,1 2,3 2,4l65 112c0,1 7,12 7,13l25 40c1,1 6,7 9,11 1,1 2,2 3,4l9 16c1,1 2,3 3,4 1,1 2,3 2,4l172 234c17,18 34,26 37,55 -18,7 -24,28 -42,62l-4 9c-9,17 -35,73 -69,108 -3,4 -8,9 -9,11l-23 36c-1,1 -2,2 -3,3 -1,1 -3,2 -4,3 -1,1 -2,2 -3,3l-232 206c-22,23 -49,46 -63,75l-8 25c0,1 -1,3 -1,5l-10 62c0,51 1,79 20,123l22 37c16,27 22,31 47,45 26,14 40,28 67,38 1,1 3,1 4,2 2,0 4,1 5,2 26,10 21,9 77,7l6 7c28,18 80,5 112,7 39,2 14,3 36,9 38,12 116,4 160,4 11,0 28,1 38,-1 25,-4 9,-5 29,-10 26,-6 57,-1 84,-2 50,-1 20,-12 71,-13l321 -71c2,-1 4,-1 5,-2 2,0 4,-1 5,-2l38 -14c7,-3 17,-8 27,-13 19,-9 9,-3 28,-10l60 -25c2,-1 3,-2 4,-3l81 -43c17,11 35,18 55,30l98 46c20,10 -11,-6 8,5l157 66c21,11 11,4 33,12l116 47c2,1 3,2 5,2 12,4 21,4 32,7 10,2 9,2 16,4l163 53c2,1 13,5 14,5l73 12c2,0 4,1 6,1l19 8c1,0 3,0 5,1 2,0 3,0 5,1 7,1 11,1 18,2l269 51c20,3 8,2 16,4l219 17c20,4 32,11 61,12l426 0c20,-2 35,-4 44,-7 40,-14 147,-7 202,-13l72 -14c38,-4 4,-1 30,-8 21,-6 22,-3 42,-4 38,-3 17,-4 31,-9l188 -41c43,-16 39,2 117,-27l119 -37c2,-1 3,-2 5,-2l9 -4c2,0 3,-1 5,-2 13,-4 23,-5 32,-7l209 -85c2,-1 3,-2 5,-2l30 -9c13,-4 15,-5 19,-6l170 177c46,46 105,86 161,120 206,123 350,199 603,235 142,20 138,19 259,9 101,-9 141,-4 264,-26 85,-14 215,-51 289,-84 194,-87 293,-153 451,-295l178 -204c120,-164 188,-315 243,-510 49,-173 48,-337 37,-512 -3,-58 -21,-116 -23,-167zm-1182 815l9 0c76,0 158,-7 196,-95 36,-84 22,-158 -36,-225l-7 -8c-53,-77 -118,-97 -176,-183 60,-112 216,-141 236,-321 20,-184 -209,-238 -321,-138 -33,29 -61,61 -92,92 -38,38 -51,63 -97,93 -39,-20 -68,-52 -96,-87 -204,-264 -423,-132 -415,34 5,101 70,171 144,229 44,36 61,51 93,98 -71,106 -131,115 -186,187 -101,132 -54,319 132,324 156,4 235,-187 328,-236 82,55 127,139 198,190 33,24 56,28 90,46zm-1558 243l8 3c69,31 147,59 217,-6 67,-62 85,-136 60,-221l-4 -10c-1,-6 -3,-13 -4,-19 -20,-42 -38,-85 -54,-129 -11,-26 -21,-55 -27,-90l0 0 -2 -10c-64,-255 -34,-547 78,-769 14,-28 23,-50 39,-75 15,-25 29,-44 46,-69 68,-101 134,-159 220,-236 164,-146 386,-233 615,-250l2 -1c127,-14 253,61 399,-50 124,-93 64,-250 -47,-309 -87,-17 -175,-26 -264,-26 -6,1 -11,1 -17,1 -94,1 -189,12 -282,35 -160,39 -133,31 -283,90 -169,68 -366,207 -496,342 -20,21 -25,33 -46,54 -209,210 -371,629 -371,938 0,142 3,237 30,351 18,74 35,140 54,202 6,17 12,34 17,50 17,50 37,97 61,145 16,22 33,35 51,59zm-650 -2338c0,71 2,116 51,170 106,114 361,60 361,-117 0,-63 -2,-118 -51,-170 -118,-120 -361,-48 -361,117zm-861 23c0,224 256,259 352,153 106,-116 62,-277 -54,-337 -128,-65 -298,20 -298,184zm-495 -130l-7 -7c-48,-64 -196,-92 -298,-16 -83,62 -77,223 -9,300 102,116 330,68 358,-119 11,-69 -13,-111 -44,-158z"/>
  <path class="fil2" d="M5908 4204l0 -8 0 8z"/>
  <path class="fil3" d="M2076 167l-8 0 8 0z"/>
  <path class="fil4" d="M1101 624l-8 8 8 -8z"/>
 </g>
</svg>
