<?xml version="1.0" encoding="UTF-8"?>
<!DOCTYPE svg PUBLIC "-//W3C//DTD SVG 1.0//EN" "http://www.w3.org/TR/2001/REC-SVG-20010904/DTD/svg10.dtd">
<!-- Creator: CorelDRAW X7 -->
<svg xmlns="http://www.w3.org/2000/svg" xml:space="preserve" width="77.5mm" height="66.5mm" version="1.0" style="shape-rendering:geometricPrecision; text-rendering:geometricPrecision; image-rendering:optimizeQuality; fill-rule:evenodd; clip-rule:evenodd"
viewBox="0 0 7750 6650"
 xmlns:xlink="http://www.w3.org/1999/xlink">
 <defs>
  <style type="text/css">
   <![CDATA[
    .fil0 {fill:#FEFEFE}
   ]]>
  </style>
 </defs>
 <g id="Слой_x0020_1">
  <metadata id="CorelCorpID_0Corel-Layer"/>
  <path class="fil0" d="M6400 4816l-4 8c-12,13 -14,19 -24,35 -11,18 -16,20 -27,37 -59,84 -92,187 8,258 41,30 122,57 183,6 26,-22 43,-42 62,-65 19,-25 32,-49 54,-74 21,127 -18,277 -58,371 -70,165 -179,313 -334,411 -48,30 -122,70 -193,88 -159,39 -270,71 -429,36 -170,-38 -347,-152 -431,-129 -69,19 -150,146 -84,238 36,48 95,72 143,101 32,19 42,26 78,39l83 32c34,11 50,16 87,24 76,17 222,43 296,24l8 5c56,-13 138,-8 271,-41 88,-21 180,-63 250,-97 207,-99 433,-328 527,-546 25,-59 56,-140 71,-203 26,-103 39,-249 37,-353 24,9 22,12 42,27 90,66 179,90 255,-5 124,-156 -142,-326 -263,-437 -101,-91 -246,-264 -369,-139 -13,13 -24,23 -34,38l-90 134c-23,32 -32,55 -58,88 -6,9 -54,83 -57,89zm351 -1666l0 361c-1,13 -2,22 -4,27 -22,74 0,66 -13,109 -12,40 -5,48 -12,72 0,2 -1,3 -2,5l-8 30c-1,16 2,19 -3,36l-3 9c-1,2 -2,3 -2,5l-5 21c0,7 0,10 -1,18l-11 34c-1,6 -1,12 -2,17 -2,13 -2,20 -5,34l-60 185c0,1 -1,3 -2,5 -2,8 -2,11 -5,20l-13 26c0,1 -1,3 -2,4l-111 263c-1,2 -3,6 -4,8 -1,1 -2,3 -3,4l-23 41c-12,20 7,-12 -5,8l-44 85c0,0 -9,16 -9,16l-35 49c-6,10 2,-5 -7,12 -48,85 -39,57 -69,99 -8,13 -6,13 -13,25 -4,6 -5,9 -10,16l-62 81c-28,27 -42,55 -57,70l-42 42c-8,9 -2,2 -8,12 -4,7 -2,4 -7,13 -15,24 -37,33 -56,53 -1,1 -2,2 -3,3l-145 145c-6,8 -1,3 -8,11 -15,17 -32,21 -47,36 -32,32 -35,28 -61,49 -10,7 -5,5 -10,9 -6,6 -13,15 -19,20l-64 46c-10,6 1,-2 -12,8 -9,6 -12,10 -20,17l-306 197c-35,13 -50,31 -81,48l-13 7c-7,4 -5,3 -12,6l-125 55c-2,1 -8,3 -10,4 0,0 -10,5 -12,7 -2,0 -3,1 -4,2l-21 12c-17,10 -9,7 -32,13l-29 9c-2,1 -3,2 -4,2l-207 84c-8,2 -18,3 -31,7 -2,1 -3,1 -5,2l-9 4c-1,0 -3,1 -5,1l-117 37c-77,29 -73,12 -115,27l-185 41c-14,4 6,5 -30,8 -21,1 -22,-2 -42,4 -25,7 8,4 -30,8l-70 13c-54,7 -160,-1 -200,14 -8,2 -23,4 -43,6l-419 0c-29,-1 -40,-7 -61,-12l-215 -16c-8,-2 4,-1 -16,-4l-265 -50c-7,-2 -10,-1 -17,-2 -2,-1 -3,-1 -5,-1 -2,-1 -4,-1 -6,-2l-18 -7c-2,0 -4,-1 -5,-1l-72 -12c-2,0 -12,-4 -15,-5l-160 -52c-7,-2 -6,-2 -15,-4 -11,-3 -20,-3 -32,-7 -2,0 -3,-1 -5,-1l-115 -47c-21,-8 -11,-1 -32,-12l-154 -65c-19,-11 11,5 -9,-5l-96 -45c-19,-12 -37,-19 -54,-30l-79 43c-2,0 -3,2 -4,2l-60 25c-19,7 -9,2 -27,10 -10,5 -20,10 -27,13l-37 14c-2,0 -3,1 -5,2 -2,0 -3,1 -5,1l-316 70c-50,2 -21,12 -70,14 -27,0 -57,-5 -82,1 -21,5 -5,6 -29,10 -10,2 -27,1 -38,1 -44,0 -120,8 -157,-4 -22,-6 2,-6 -36,-9 -31,-2 -82,11 -110,-6l-6 -7c-55,1 -51,2 -76,-8 -1,0 -3,-1 -4,-1 -2,-1 -4,-2 -5,-2 -27,-10 -40,-24 -66,-38 -25,-13 -31,-17 -46,-44l-21 -36c-19,-44 -20,-71 -21,-122l10 -61c1,-2 1,-3 2,-5l8 -24c13,-29 40,-51 61,-74l229 -203c1,-1 2,-2 3,-3 1,-1 3,-2 3,-3 1,-1 3,-2 4,-3l22 -35c2,-2 6,-7 9,-11 33,-34 60,-89 68,-106l4 -9c18,-34 24,-54 41,-62 -2,-28 -19,-36 -36,-54l-169 -230c-1,-1 -2,-2 -3,-4 0,-1 -1,-2 -2,-4l-9 -16c-1,-1 -2,-3 -3,-4 -3,-4 -8,-9 -9,-10l-25 -40c0,0 -6,-11 -7,-12l-63 -110c-1,-2 -2,-3 -2,-5l-58 -116c-1,-1 -2,-3 -2,-4l-5 -9c-35,-68 -21,-48 -50,-117 -1,-2 -3,-7 -4,-9 0,-1 -1,-3 -1,-5 -1,-1 -1,-3 -2,-5l-24 -53c0,-2 -1,-3 -1,-5l-15 -43c-3,-14 -3,-21 -8,-37l-17 -48c-1,-1 -1,-3 -2,-4l-51 -194c-17,-51 -17,-108 -25,-162 -2,-17 -2,-9 -4,-15 -10,-31 -4,-62 -8,-94 -7,-45 -4,2 -12,-34 -9,-42 -1,-308 -1,-373 0,-41 9,-26 13,-70 3,-30 -5,-52 4,-79 6,-18 1,11 8,-19 1,-7 1,-10 1,-18l21 -153 58 -199c0,-2 1,-4 2,-5 0,-2 1,-4 1,-5 2,-7 2,-8 5,-15l33 -108c24,-57 41,-114 71,-168l29 -55c5,-11 4,-18 10,-28l140 -240c1,-1 2,-2 3,-4l173 -238c1,-1 2,-3 3,-4l324 -340c40,-26 47,-42 66,-55l48 -37c13,-13 11,-11 25,-19l73 -56c20,-20 15,-11 34,-24 1,0 3,-2 4,-2l369 -224c1,-1 3,-1 4,-2l118 -56c3,-2 15,-9 16,-10l188 -76c1,-1 2,-2 4,-3l37 -14c1,-1 3,-1 5,-2 1,0 3,-1 4,-1l43 -16c35,-13 73,-17 109,-32l18 -8c2,0 3,-1 5,-2l60 -17c6,-1 13,-4 20,-6l182 -43c42,-5 67,-18 104,-24 13,-2 25,0 38,-2 45,-6 -3,-3 34,-11 20,-4 41,1 60,-4 2,0 3,-1 5,-2 30,-10 55,-3 87,-9 24,-4 8,-5 29,-10l158 -9c140,0 280,0 419,0l159 9c38,9 23,9 73,11 50,1 20,11 71,13l577 138c7,2 8,2 15,4l174 70c2,1 3,2 5,2l74 29c5,3 9,5 16,9l122 53c1,0 3,1 4,2 1,1 3,2 4,2l63 34c1,1 3,1 4,2l66 38c8,3 23,11 29,15l178 112c8,5 9,5 16,10l155 115c11,8 6,4 12,8l61 48c25,16 35,35 57,52l100 88c7,8 9,12 18,20l127 124 255 331c6,9 10,19 15,30 12,22 6,9 16,23l93 159c0,1 1,3 2,4 1,1 1,3 2,4 1,1 2,3 2,4l23 42c10,18 19,37 28,56l16 35c0,2 1,3 2,5l15 30c1,1 1,3 2,4l16 42c10,17 7,9 13,32l16 48c3,6 3,9 5,14 1,2 2,4 2,5l4 9c2,7 2,7 4,15l35 95c4,14 3,16 7,31l17 48c9,25 8,60 16,86l11 54c7,33 5,-5 11,34l25 142c1,6 1,12 1,18 2,80 11,78 13,105zm-1822 1888l0 0zm196 299l4 -8 5 -8 105 -162c132,-214 -90,-298 -167,-261 -83,40 -101,102 -143,140 -9,-38 2,-121 10,-150 27,-96 22,-101 72,-197 32,-62 44,-88 88,-146 8,-9 16,-17 25,-28 133,-158 319,-287 537,-308 134,-12 180,-12 308,14 107,21 174,63 261,101 101,44 214,12 242,-97 13,-53 5,-107 -39,-145 -163,-143 -470,-202 -677,-201 -235,1 -479,94 -639,210 -156,112 -328,295 -403,475 -10,24 -17,42 -27,65 -48,114 -110,310 -79,434l-26 6c-18,-54 -100,-102 -176,-89 -145,24 -197,163 -71,288 99,99 150,151 262,241 121,98 153,171 271,138 47,-13 92,-65 117,-101 10,-16 15,-28 27,-43l113 -168zm-2456 -2032l0 38c0,91 85,183 175,183l53 0c86,0 168,-89 168,-175l0 -54c0,-119 -180,-227 -339,-110 -29,22 -57,71 -57,118zm830 -8c0,131 53,235 190,234 257,0 265,-381 21,-398 -101,-7 -211,66 -211,164zm1166 168l7 -8c69,-103 51,-220 -22,-274 -141,-104 -331,-27 -329,153 3,180 187,225 288,172 17,-9 46,-30 56,-43z"/>
 </g>
</svg>
