<?xml version="1.0" encoding="UTF-8"?>
<!DOCTYPE svg PUBLIC "-//W3C//DTD SVG 1.0//EN" "http://www.w3.org/TR/2001/REC-SVG-20010904/DTD/svg10.dtd">
<!-- Creator: CorelDRAW X7 -->
<svg xmlns="http://www.w3.org/2000/svg" xml:space="preserve" width="77.5mm" height="66.5mm" version="1.0" style="shape-rendering:geometricPrecision; text-rendering:geometricPrecision; image-rendering:optimizeQuality; fill-rule:evenodd; clip-rule:evenodd"
viewBox="0 0 7750 6650"
 xmlns:xlink="http://www.w3.org/1999/xlink">
 <defs>
  <style type="text/css">
   <![CDATA[
    .fil13 {fill:#FEFEFE}
    .fil8 {fill:#5C5C5C}
    .fil2 {fill:#5D5D5D}
    .fil6 {fill:#5E5E5E}
    .fil5 {fill:#6A6A6A}
    .fil3 {fill:#6C6C6C}
    .fil12 {fill:#6F6F6F}
    .fil9 {fill:#707070}
    .fil4 {fill:#757575}
    .fil11 {fill:#767676}
    .fil10 {fill:#7A7A7A}
    .fil1 {fill:#7B7B7B}
    .fil7 {fill:#7D7D7D}
    .fil0 {fill:#FDFDFD}
   ]]>
  </style>
 </defs>
 <g id="Слой_x0020_1">
  <metadata id="CorelCorpID_0Corel-Layer"/>
  <path class="fil0" d="M1464 1412c0,12 3,9 -9,9l-14 15c-90,98 -183,192 -263,300l-182 267c-87,145 -132,245 -193,402 -73,190 -116,409 -139,615 -19,170 6,422 22,569 30,269 114,461 211,689 73,171 193,303 292,455 21,32 41,55 61,90l0 9c-40,74 -82,136 -133,202 -36,47 -99,105 -147,143 -10,7 -17,13 -25,20l-8 8c-40,27 -95,69 -113,115 -11,26 -19,65 -22,93 -5,42 10,67 13,104l8 8c57,243 491,183 654,183l9 0c101,-24 207,-30 352,-67 64,-17 170,-52 229,-83 29,-15 39,-26 79,-26l10 0 364 163c27,10 54,18 79,27 282,94 559,158 891,168 39,1 46,8 91,8 168,1 341,-4 508,-25 111,-14 434,-68 530,-110 123,-52 141,-197 82,-284l-8 -8c-64,-95 -178,-65 -265,-44 -261,65 -235,47 -464,77 -144,19 -299,14 -444,13 -74,0 -346,-33 -405,-45 -99,-20 -201,-41 -293,-72 -222,-74 -185,-61 -397,-152l-124 -58 -8 -8 -94 -51c-92,-37 -192,45 -325,104 -139,62 -354,92 -510,92 29,-44 67,-88 99,-130 81,-105 249,-362 173,-500 -36,-65 -157,-186 -207,-258 -34,-49 -61,-92 -92,-144 -17,-27 -28,-46 -42,-72 -5,-10 -5,-9 -11,-20 -137,-276 -206,-455 -241,-787 -14,-126 -14,-321 4,-447 14,-105 55,-292 89,-383 34,-90 56,-153 101,-243l172 -299c47,-66 154,-203 208,-257 129,-128 233,-226 377,-332 25,-18 44,-27 69,-46 25,-19 41,-28 69,-45l229 -128c110,-64 371,-160 505,-196 90,-25 310,-78 395,-78l7 -7c122,-1 383,-36 502,-22 399,44 370,15 783,131 101,29 111,38 198,69l183 75c32,15 61,36 94,44l8 7c20,11 72,41 91,46l9 7c108,61 232,140 329,219 19,15 34,27 51,40 21,16 33,32 53,46l8 8c83,55 261,272 332,369 98,135 182,285 251,449l90 261c32,110 43,250 57,293 27,85 91,149 214,135 51,-5 88,-27 114,-61 40,-51 39,-56 39,-144 0,-208 -114,-495 -192,-684l-85 -174c-12,-23 -18,-38 -30,-61 -84,-156 -252,-375 -381,-503l-130 -129c-250,-210 -340,-299 -680,-470 -341,-170 -695,-274 -1073,-329 -116,-17 -275,-17 -326,-24 -34,-5 -137,-5 -171,0 -355,47 -352,1 -772,112 -218,58 -319,90 -526,183 -45,20 -74,35 -118,57 -122,61 -216,120 -333,193l-300 225c-36,29 -58,62 -93,89z"/>
  <path class="fil0" d="M2651 3202l0 38c0,90 86,182 176,182l53 0c86,0 167,-88 167,-175l0 -53c0,-120 -180,-227 -338,-110 -29,22 -58,70 -58,118z"/>
  <path class="fil0" d="M3482 3194c0,131 53,234 190,234 257,0 265,-381 21,-398 -101,-7 -211,65 -211,164z"/>
  <path class="fil0" d="M4647 3362l8 -8c69,-103 51,-221 -23,-275 -141,-104 -331,-26 -328,153 3,180 187,225 288,173 17,-9 46,-30 55,-43z"/>
  <path class="fil1" d="M1464 1412c-12,0 -9,-3 -9,9 12,0 9,3 9,-9z"/>
  <path class="fil2" d="M3268 955l-7 7 7 -7z"/>
  <path class="fil3" d="M5036 1259l-8 -7 8 7z"/>
  <path class="fil4" d="M5136 1312l-9 -7 9 7z"/>
  <path class="fil5" d="M4655 3354l-8 8 8 -8z"/>
  <path class="fil6" d="M5577 1625l-8 -8 8 8z"/>
  <path class="fil7" d="M6895 4595l-8 8 8 -8z"/>
  <path class="fil8" d="M5310 4809l-7 7 7 -7z"/>
  <path class="fil9" d="M5303 4816l-8 8 8 -8z"/>
  <path class="fil10" d="M1250 4823l0 9 0 -9z"/>
  <path class="fil3" d="M2301 5190l-8 -8 8 8z"/>
  <path class="fil1" d="M945 5197l-8 8 8 -8z"/>
  <path class="fil4" d="M4701 5479l-8 -8 8 8z"/>
  <path class="fil9" d="M823 5525l-8 -8 8 8z"/>
  <path class="fil11" d="M2156 5532l-10 0 10 0z"/>
  <path class="fil12" d="M1486 5708l-9 0 9 0z"/>
  <path class="fil11" d="M5821 6073l-8 -7 8 7z"/>
  <path class="fil13" d="M6366 4348l-5 8c-12,13 -13,18 -23,34 -11,18 -16,21 -28,37 -58,85 -91,187 8,259 41,30 123,57 183,6 26,-22 43,-42 62,-65 20,-25 32,-49 55,-74 21,127 -19,277 -59,371 -70,165 -179,312 -333,411 -48,30 -123,70 -193,88 -159,39 -270,71 -429,36 -170,-38 -347,-153 -432,-129 -68,18 -149,145 -83,237 35,49 95,72 143,101 32,19 41,26 78,40l83 32c34,10 50,16 87,24 76,17 221,43 296,24l8 5c55,-13 137,-9 271,-41 87,-22 179,-63 250,-97 206,-99 432,-328 526,-546 26,-60 56,-140 72,-204 25,-102 38,-249 36,-353 25,9 22,13 43,28 89,66 178,90 254,-5 124,-156 -141,-326 -263,-437 -100,-92 -245,-264 -368,-139 -13,13 -24,22 -34,38l-91 133c-22,33 -32,56 -57,89 -7,9 -55,83 -57,89z"/>
  <path class="fil13" d="M4895 4569l0 0zm195 300l5 -8 4 -8 106 -162c131,-214 -91,-298 -167,-261 -83,39 -102,102 -143,139 -10,-37 1,-121 9,-149 27,-96 22,-101 72,-198 33,-61 44,-87 89,-145 7,-10 15,-17 24,-28 134,-158 319,-287 537,-308 134,-13 180,-12 309,13 106,21 174,63 260,101 102,45 214,13 242,-96 14,-54 6,-107 -38,-145 -164,-144 -471,-202 -677,-201 -236,1 -480,94 -639,209 -156,113 -328,296 -403,476 -10,24 -18,41 -27,64 -49,115 -111,310 -80,434l-25 7c-19,-55 -100,-103 -177,-90 -145,25 -196,164 -71,289 100,99 150,150 263,241 120,98 153,171 271,138 47,-13 91,-65 116,-102 11,-15 16,-27 27,-42l113 -168z"/>
 </g>
</svg>
