<?xml version="1.0" encoding="UTF-8"?>
<!DOCTYPE svg PUBLIC "-//W3C//DTD SVG 1.0//EN" "http://www.w3.org/TR/2001/REC-SVG-20010904/DTD/svg10.dtd">
<!-- Creator: CorelDRAW X7 -->
<svg xmlns="http://www.w3.org/2000/svg" xml:space="preserve" width="77.5mm" height="66.5mm" version="1.0" style="shape-rendering:geometricPrecision; text-rendering:geometricPrecision; image-rendering:optimizeQuality; fill-rule:evenodd; clip-rule:evenodd"
viewBox="0 0 7750 6650"
 xmlns:xlink="http://www.w3.org/1999/xlink">
 <defs>
  <style type="text/css">
   <![CDATA[
    .fil0 {fill:#FDFDFD}
   ]]>
  </style>
 </defs>
 <g id="Слой_x0020_1">
  <metadata id="CorelCorpID_0Corel-Layer"/>
  <path class="fil0" d="M6969 3213l0 361c-1,12 -2,21 -4,26 -22,74 1,66 -12,110 -12,39 -6,48 -12,71 -1,2 -2,4 -2,5l-8 31c-2,16 1,19 -3,35l-4 10c0,1 -1,3 -2,4l-4 21c-1,7 0,10 -2,18l-10 35c-1,5 -2,11 -3,17 -1,13 -2,20 -4,34l-60 184c-1,2 -2,3 -2,5 -3,8 -3,12 -6,20l-12 26c-1,2 -2,3 -2,4l-111 263c-1,2 -4,7 -5,8 -1,2 -1,3 -2,5l-23 41c-12,19 6,-13 -5,8l-44 85c0,0 -9,15 -10,16l-34 49c-6,9 2,-5 -8,12 -47,84 -39,56 -68,99 -9,12 -7,13 -14,25 -3,6 -5,8 -10,16l-61 80c-29,28 -42,55 -58,71l-42 42c-7,9 -2,2 -8,11 -4,8 -1,5 -6,13 -15,24 -38,33 -56,53 -1,1 -2,3 -3,4l-145 145c-7,7 -2,3 -9,10 -14,17 -31,22 -47,37 -32,31 -35,27 -61,48 -9,8 -5,5 -10,10 -5,6 -13,14 -19,20l-63 45c-10,7 1,-2 -12,8 -9,7 -12,11 -21,18l-305 197c-35,13 -50,30 -82,47l-12 7c-7,4 -6,3 -13,7l-125 55c-2,1 -7,3 -9,4 0,0 -10,5 -13,6 -1,1 -3,2 -4,2l-20 12c-18,10 -9,7 -32,14l-30 9c-1,0 -3,1 -4,2l-206 83c-9,2 -19,3 -32,8 -1,0 -3,1 -4,1l-9 4c-2,1 -4,1 -5,2l-118 37c-77,28 -72,11 -115,27l-185 40c-13,4 7,5 -30,8 -20,2 -21,-2 -41,4 -26,7 7,5 -30,9l-71 13c-54,6 -160,-1 -199,13 -8,3 -23,5 -43,6l-420 0c-28,-1 -40,-7 -60,-11l-216 -16c-7,-3 4,-2 -15,-4l-265 -51c-7,-1 -11,-1 -17,-2 -2,0 -4,-1 -6,-1 -2,0 -3,-1 -5,-1l-19 -7c-1,-1 -3,-1 -5,-2l-72 -11c-2,-1 -12,-5 -14,-5l-161 -52c-6,-2 -6,-2 -15,-5 -11,-2 -20,-3 -32,-6 -1,-1 -3,-2 -4,-2l-115 -46c-22,-8 -12,-2 -33,-13l-154 -65c-18,-10 11,6 -8,-4l-96 -46c-20,-11 -37,-18 -54,-30l-80 43c-1,1 -3,2 -4,3l-59 24c-19,7 -9,2 -28,11 -9,4 -19,10 -26,12l-38 14c-1,1 -3,2 -4,2 -2,1 -4,1 -5,2l-317 70c-50,1 -20,12 -70,13 -27,1 -56,-5 -82,2 -21,5 -4,5 -29,10 -9,1 -27,1 -37,1 -44,-1 -120,7 -158,-4 -22,-7 3,-7 -35,-10 -32,-2 -83,12 -110,-6l-7 -7c-55,2 -50,2 -75,-7 -2,-1 -4,-1 -5,-2 -1,-1 -3,-1 -5,-2 -26,-10 -40,-24 -65,-37 -25,-14 -31,-18 -47,-44l-21 -37c-19,-44 -20,-71 -20,-122l10 -61c0,-1 1,-3 1,-4l8 -25c13,-29 40,-51 61,-74l229 -202c1,-1 3,-2 4,-3 1,-1 2,-3 3,-4 1,0 2,-2 3,-3l23 -35c1,-2 6,-7 9,-10 33,-35 59,-90 67,-107l4 -8c18,-34 24,-55 42,-62 -3,-29 -20,-37 -36,-54l-170 -230c0,-1 -1,-3 -2,-4 -1,-1 -2,-3 -2,-4l-10 -17c-1,-1 -2,-2 -3,-3 -3,-4 -8,-10 -9,-11l-24 -39c-1,-1 -7,-12 -7,-13l-64 -110c0,-1 -1,-3 -2,-4l-57 -117c-1,-1 -2,-3 -3,-4l-4 -8c-36,-69 -22,-48 -50,-117 -1,-2 -3,-8 -4,-10 -1,-1 -1,-3 -2,-4 0,-2 -1,-4 -1,-5l-24 -54c-1,-1 -1,-3 -2,-4l-14 -44c-4,-14 -3,-20 -9,-37l-17 -47c0,-2 -1,-3 -1,-5l-52 -193c-16,-52 -17,-108 -24,-162 -3,-18 -2,-10 -4,-16 -10,-30 -4,-61 -9,-94 -6,-45 -3,3 -11,-34 -9,-42 -2,-307 -2,-372 0,-41 10,-27 14,-71 2,-29 -5,-52 4,-79 6,-18 1,12 7,-19 1,-7 1,-10 2,-17l20 -154 58 -199c1,-2 1,-3 2,-5 1,-1 1,-3 2,-5 2,-6 2,-8 4,-15l34 -108c23,-56 40,-114 70,-168l29 -54c5,-12 5,-18 10,-29l140 -239c1,-2 2,-3 3,-4l174 -238c1,-2 2,-3 2,-4l324 -340c41,-26 48,-43 67,-56l47 -36c14,-14 11,-11 25,-20l74 -55c19,-20 15,-11 34,-24 1,-1 2,-2 3,-3l369 -224c2,0 3,-1 5,-2l117 -56c4,-2 16,-9 17,-9l187 -77c1,-1 3,-2 4,-2l37 -15c2,0 3,-1 5,-1 2,-1 3,-1 5,-2l42 -16c36,-13 74,-17 110,-32l18 -7c1,-1 3,-2 4,-2l61 -17c5,-2 12,-4 19,-7l183 -42c41,-5 67,-19 104,-25 13,-2 25,0 37,-1 46,-7 -3,-4 34,-12 20,-4 41,2 60,-4 2,0 4,-1 5,-1 31,-11 56,-4 87,-10 25,-4 8,-4 29,-10l159 -8c139,0 279,0 419,0l159 8c38,10 23,10 73,11 50,1 20,12 70,13l577 138c7,2 8,2 15,5l175 70c1,0 3,1 4,2l74 29c6,3 9,5 17,9l121 52c1,1 3,2 4,3 2,0 3,1 4,2l64 33c1,1 3,2 4,3l65 37c8,4 24,12 30,16l178 112c7,5 8,4 16,9l155 116c10,7 6,3 12,7l60 49c25,16 35,34 58,52l99 87c7,9 10,12 18,21l128 123 255 332c5,8 9,19 15,29 12,22 5,9 15,24l93 158c1,1 2,3 2,4 1,1 2,3 3,4 0,2 1,3 2,5l22 41c10,19 20,37 28,56l16 36c1,1 2,3 2,4l15 30c1,2 2,3 2,5l17 41c9,17 6,10 12,33l17 48c2,5 3,8 5,14 0,1 1,3 2,4l3 10c3,6 2,7 5,14l34 95c5,14 3,17 7,32l17 47c9,25 9,60 17,87l10 53c7,34 6,-5 11,35l25 142c1,6 2,12 2,18 2,79 10,78 12,105zm-3284 178c-23,34 -55,62 -84,91 -4,4 -3,3 -10,9l-226 225c-1,1 -2,2 -3,3l-25 26c-25,23 -166,156 -182,186 0,0 -4,10 -6,13 -1,2 -4,8 -6,13 -26,52 -14,107 17,159 8,15 22,23 35,29 16,8 19,18 47,24l28 5c1,0 3,1 5,2 18,4 51,-2 72,-8 37,-10 68,-48 92,-75l200 -200c51,-42 90,-97 136,-140 1,-1 12,-10 14,-12l79 -76c8,-7 6,-5 13,-13 10,-9 17,-13 23,-29l19 0c8,30 44,54 67,75l155 154c10,9 15,15 23,22l247 248c1,1 3,3 3,4l48 30c4,1 12,6 12,6 13,6 -1,2 14,6 35,10 82,5 114,-10 11,-5 18,-7 27,-12 16,-8 14,-4 25,-20 18,-25 49,-82 42,-113l-10 -30c-16,-79 -80,-108 -130,-166l-248 -248c-9,-10 -8,-10 -19,-20l-108 -104c-16,-13 -27,-35 -43,-41l421 -435c33,-38 79,-65 103,-110 0,-1 1,-3 2,-4l27 -76c1,-2 2,-6 2,-8l-6 -25c-3,-17 0,-23 -5,-40 -5,-19 -21,-37 -34,-50l-82 -40c-2,-1 -3,-2 -5,-2 -2,-1 -7,-3 -9,-4l-99 21c-25,11 -102,92 -120,112 -4,4 -6,8 -9,10l-29 30c-1,1 -2,2 -3,3l-125 126c-9,8 -10,11 -19,19 -1,1 -3,2 -4,3l-161 161c-23,20 -56,41 -64,71l-19 0c-6,-16 -5,-10 -16,-23 -1,-1 -10,-9 -10,-9l-515 -503c-25,-17 -67,-22 -93,-16 -23,6 -37,4 -57,15l-39 25c-12,12 -10,12 -16,23 -34,56 -35,44 -28,128 4,34 7,24 23,48l68 74c4,5 3,4 9,10l33 32c56,56 108,115 167,167l255 254z"/>
 </g>
</svg>
