<?xml version="1.0" encoding="UTF-8"?>
<!DOCTYPE svg PUBLIC "-//W3C//DTD SVG 1.0//EN" "http://www.w3.org/TR/2001/REC-SVG-20010904/DTD/svg10.dtd">
<!-- Creator: CorelDRAW X7 -->
<svg xmlns="http://www.w3.org/2000/svg" xml:space="preserve" width="40px" height="40px" version="1.0" style="shape-rendering:geometricPrecision; text-rendering:geometricPrecision; image-rendering:optimizeQuality; fill-rule:evenodd; clip-rule:evenodd"
viewBox="0 0 7750 6650"
 xmlns:xlink="http://www.w3.org/1999/xlink">
 <defs>
  <style type="text/css">
   <![CDATA[
    .fil1 {fill:#787878}
    .fil2 {fill:#7D7D7D}
    .fil0 {fill:#FDFDFD}
   ]]>
  </style>
 </defs>
 <g id="Слой_x0020_1">
  <metadata id="CorelCorpID_0Corel-Layer"/>
  <g id="_1617206839040">
   <path class="fil0" d="M2368 5417l-7 0 -74 -41c-63,-35 -100,-38 -155,-15l-73 44c-1,0 -2,1 -4,2l-188 82c-2,1 -3,1 -5,2 -1,0 -3,1 -5,1l-23 9c-1,1 -3,2 -5,2l-73 16c-17,6 5,0 -15,5l-255 42c-56,-1 -112,0 -167,0 6,-6 1,-2 10,-9l45 -45c1,-2 2,-3 2,-5l71 -83c1,-1 2,-3 3,-4l97 -142c0,-1 1,-3 2,-4 0,-1 1,-3 2,-4l16 -29c1,-1 2,-2 3,-3 1,-1 2,-3 3,-4l53 -108c5,-12 6,-15 12,-27 2,-5 3,-9 5,-14 3,-6 3,-8 5,-14l8 -19c7,-15 12,-16 16,-35 8,-39 3,-106 -22,-137l-26 -26c-26,-26 -24,-34 -69,-79l-32 -45c-10,-14 -31,-27 -39,-39 -9,-13 -1,-8 -13,-25 -7,-10 -11,-10 -18,-21l-57 -84c-1,-1 -2,-3 -3,-4l-78 -128c-11,-26 -26,-39 -39,-63 -1,-2 -2,-3 -2,-5l-5 -8c-2,-4 -5,-10 -6,-13l-23 -42c-14,-22 -19,-59 -32,-83 -1,-1 -2,-3 -3,-4l-7 -13c-1,-1 -3,-6 -4,-8 -1,-1 -2,-3 -2,-4l-32 -78c-3,-6 -3,-8 -5,-14l-70 -233c-13,-50 -11,-80 -19,-116 -5,-21 -11,-27 -12,-53 0,-28 -8,-38 -12,-65 -3,-22 2,-54 0,-77 -5,-36 -13,-12 -14,-64 0,-77 -5,-162 1,-239 3,-44 12,-14 13,-63 3,-107 9,-65 13,-110 1,-12 -2,-27 0,-39l32 -167c3,-12 0,-3 4,-15l8 -19c0,-1 6,-13 6,-13l44 -155c1,-2 3,-7 4,-9 4,-10 6,-19 10,-29l45 -97c15,-26 14,-55 32,-83l8 -12c0,-1 1,-3 2,-4l11 -22c0,-1 1,-3 2,-4l153 -259c25,-30 40,-45 60,-82 8,-14 7,-13 16,-22 12,-11 9,-3 20,-18 11,-14 3,-11 18,-28 11,-15 26,-24 38,-39l62 -73c50,-51 160,-169 213,-205 20,-13 25,-23 40,-38 23,-22 25,-12 46,-32 28,-27 63,-41 93,-67l240 -160c10,-5 15,-8 25,-13l34 -17c24,-12 38,-27 65,-39l56 -28c1,-1 3,-2 4,-2l132 -55c11,-3 17,-7 27,-12 1,0 3,-1 4,-2l54 -23c8,-3 8,-3 14,-6l103 -32c3,-2 23,-12 25,-13l125 -36c2,0 4,-1 5,-2 2,0 3,-1 5,-1l74 -23c33,-10 86,-13 113,-22l64 -14c19,-5 13,-2 33,-5 37,-5 6,-1 30,-8 26,-8 44,0 69,-8 30,-10 38,-7 76,-9l144 -10c26,-8 -7,-5 30,-9 9,-1 28,0 38,0 110,1 250,-8 355,0 47,3 28,13 109,13l116 6c44,3 27,11 64,13 8,0 11,0 19,1 18,3 24,10 52,12l48 10c10,3 7,2 17,3l332 86c1,1 3,2 4,2 2,1 3,1 5,2 1,0 3,1 4,2 2,0 4,1 5,2 38,14 78,19 116,39l190 80c44,15 85,40 127,59 2,1 3,1 5,2l166 97c6,4 5,4 12,9l59 36c20,12 22,6 40,25l123 90c8,7 6,6 9,10l22 17c1,1 3,1 4,2 1,1 3,2 4,2l8 5c23,17 39,39 63,53 10,6 3,0 12,8l238 238c22,20 32,46 51,65l70 84c6,9 3,5 7,13 1,1 2,3 2,4 1,1 2,3 3,4l139 209c0,1 1,3 2,4 0,2 1,3 2,5l131 255c0,1 1,3 2,4l13 25c1,2 2,3 2,5 1,1 2,3 2,5 9,24 6,38 16,61 27,58 37,107 52,167l38 143c4,32 11,28 13,64 0,12 -2,25 1,38 4,24 4,8 9,28 7,28 0,70 9,95 0,1 1,3 2,4 10,31 7,260 5,318 0,7 0,11 -2,18 -15,72 -6,12 -11,92 -3,35 -12,35 -13,70l-61 274c-1,2 -1,4 -2,5l-25 65c-2,4 -4,10 -5,14 -2,7 -4,12 -6,20 -1,1 -1,3 -2,5l-89 214c0,1 -1,2 -2,4l-30 66c0,1 -6,13 -6,13 -6,11 -1,2 -8,12l-17 21c-1,1 -2,3 -3,4 -1,2 -3,7 -4,9l-58 103c0,0 -7,11 -8,11l-66 95c-1,1 -2,3 -3,4l-32 38c-7,10 -3,7 -9,17l-33 45c-5,8 -10,14 -18,21l-20 18c-2,3 -8,10 -8,11l-244 252c-14,12 -10,7 -23,16 -23,16 -39,39 -62,54l-52 44c-1,1 -3,2 -4,3 -1,1 -2,2 -4,2l-100 74c-7,5 -4,2 -11,8l-27 18c-1,1 -3,2 -4,2 -1,1 -3,2 -4,3l-208 127c-1,0 -3,1 -5,2l-217 110c-15,6 -20,5 -36,10l-86 36c-1,1 -3,1 -5,2l-110 38c-2,0 -3,1 -5,1 -1,1 -3,2 -4,2l-424 112c-1,0 -3,1 -4,1l-107 16c-45,2 -14,12 -64,13l-149 6c-10,0 -29,-1 -38,0 -33,4 -9,5 -34,11 -26,7 -303,12 -350,0 -21,-5 -5,-5 -29,-10 -20,-3 -61,0 -83,0l-109 -7c-34,-4 -9,-5 -35,-11 -26,-6 -44,2 -70,-6l-10 -4c-1,-1 -3,-1 -4,-2l-49 -9c-45,-15 -145,-27 -198,-40 -2,-1 -3,-1 -5,-2l-182 -56c-2,0 -4,-1 -5,-1l-33 -13c-6,-2 -6,-2 -14,-5l-173 -65c-36,-14 -64,-20 -97,-39 -1,-1 -3,-1 -4,-2l-38 -20c-12,-7 -15,-9 -25,-14l-57 -27zm4457 -2226l0 361c-1,12 -2,22 -4,27 -22,74 1,65 -13,109 -11,39 -5,48 -12,72 0,1 -1,3 -1,5l-9 30c-1,16 2,19 -2,36l-4 9c-1,1 -2,3 -2,4l-4 22c-1,7 -1,10 -2,18l-10 34c-2,6 -2,11 -3,17 -2,13 -2,20 -4,34l-61 185c0,1 -1,3 -1,4 -3,9 -3,12 -6,20l-12 27c-1,1 -2,3 -3,4l-110 263c-1,1 -4,6 -5,8 -1,1 -2,3 -2,4l-24 41c-12,20 7,-13 -5,8l-43 85c0,0 -10,16 -10,16l-35 49c-6,9 3,-5 -7,12 -47,85 -39,57 -68,99 -9,13 -7,13 -14,25 -4,6 -5,8 -10,16l-61 80c-29,28 -42,56 -58,71l-42 42c-7,9 -2,2 -8,12 -4,7 -1,4 -6,12 -15,24 -38,33 -57,54 0,1 -2,2 -2,3l-146 145c-6,7 -1,3 -8,11 -15,17 -32,21 -47,36 -32,31 -35,27 -61,49 -9,7 -5,4 -10,9 -6,6 -13,15 -19,20l-64 46c-9,6 1,-2 -11,7 -9,7 -12,11 -21,18l-306 197c-34,13 -50,31 -81,48l-12 6c-7,4 -6,4 -13,7l-125 55c-2,1 -8,3 -9,4 -1,0 -11,5 -13,7 -1,0 -3,1 -4,2l-21 12c-17,9 -8,6 -31,13l-30 9c-1,1 -3,1 -4,2l-207 84c-8,1 -18,3 -31,7 -1,1 -3,1 -4,2l-10 3c-1,1 -3,2 -4,2l-118 37c-77,29 -73,11 -115,27l-185 40c-13,5 7,6 -30,9 -20,1 -22,-2 -42,3 -25,8 8,5 -29,9l-71 13c-54,6 -160,-1 -200,13 -8,3 -23,5 -43,7l-419 0c-28,-1 -40,-7 -60,-12l-216 -16c-7,-2 4,-1 -15,-4l-265 -51c-8,-1 -11,0 -18,-2 -2,0 -3,0 -5,-1 -2,0 -4,0 -5,-1l-19 -7c-2,0 -3,-1 -5,-1l-72 -12c-2,0 -12,-4 -14,-5l-161 -52c-7,-2 -6,-2 -15,-4 -11,-3 -20,-3 -32,-7 -1,-1 -3,-1 -5,-2l-114 -46c-22,-8 -12,-1 -33,-12l-154 -65c-19,-11 11,5 -8,-5l-97 -45c-19,-12 -37,-19 -54,-30l-79 43c-1,0 -3,1 -4,2l-59 25c-20,7 -9,1 -28,10 -9,5 -20,10 -26,13l-38 14c-1,0 -3,1 -5,1 -1,1 -3,1 -5,2l-316 70c-50,1 -21,12 -70,13 -27,1 -57,-4 -82,2 -21,5 -5,6 -29,10 -10,2 -27,1 -38,1 -43,0 -120,8 -157,-4 -22,-6 3,-7 -36,-9 -31,-2 -82,11 -110,-6l-6 -7c-55,1 -50,2 -76,-8 -1,0 -3,-1 -4,-2 -2,0 -3,-1 -5,-1 -27,-10 -40,-24 -65,-38 -25,-13 -31,-18 -47,-44l-21 -37c-19,-43 -20,-71 -20,-121l9 -61c1,-2 2,-3 2,-5l8 -24c13,-29 40,-51 61,-74l229 -203c1,-1 2,-2 3,-3 1,-1 3,-2 4,-3 1,-1 2,-2 3,-3l23 -36c1,-1 5,-6 9,-10 32,-35 59,-89 67,-106l4 -9c18,-34 24,-55 41,-62 -2,-28 -19,-36 -35,-54l-170 -230c-1,-1 -2,-3 -2,-4 -1,-1 -2,-3 -3,-4l-9 -16c-1,-1 -2,-3 -3,-4 -3,-4 -8,-9 -9,-10l-24 -40c-1,-1 -7,-12 -7,-12l-64 -111c-1,-1 -2,-3 -2,-4l-58 -116c0,-2 -1,-3 -2,-4l-4 -9c-36,-69 -22,-48 -51,-117 0,-2 -3,-7 -3,-9 -1,-2 -2,-3 -2,-5 -1,-1 -1,-3 -2,-5l-23 -53c-1,-2 -2,-4 -2,-5l-15 -44c-3,-14 -3,-20 -8,-36l-17 -48c0,-1 -1,-3 -2,-4l-51 -194c-16,-52 -17,-108 -24,-162 -3,-17 -3,-9 -4,-15 -11,-31 -4,-62 -9,-95 -7,-45 -4,3 -11,-33 -10,-42 -2,-308 -2,-373 0,-41 10,-26 13,-70 3,-30 -5,-52 5,-80 6,-18 0,12 7,-18 1,-8 1,-11 1,-18l21 -153 58 -200c1,-1 1,-3 2,-4 0,-2 1,-4 1,-5 2,-7 2,-9 5,-15l33 -108c24,-57 41,-115 71,-168l29 -55c5,-12 4,-18 10,-28l140 -240c1,-1 2,-3 3,-4l174 -238c0,-1 1,-3 2,-4l324 -340c40,-26 47,-43 67,-55l47 -37c13,-13 11,-11 25,-19l73 -56c20,-20 16,-11 34,-24 2,-1 3,-2 4,-3l369 -223c1,-1 3,-2 4,-2l118 -56c3,-2 16,-9 16,-10l188 -77c1,0 2,-1 4,-2l37 -14c1,-1 3,-1 5,-2 1,0 3,-1 5,-2l42 -15c35,-13 73,-18 110,-32l18 -8c1,-1 3,-1 4,-2l61 -17c5,-2 12,-4 19,-6l182 -43c42,-5 67,-19 105,-25 13,-2 24,1 37,-1 45,-6 -3,-4 34,-11 20,-4 41,1 60,-4 2,-1 3,-1 5,-2 30,-10 55,-4 87,-9 25,-5 8,-5 29,-10l159 -9c139,0 279,0 419,0l158 9c38,9 24,9 74,10 49,1 19,12 70,14l577 137c7,3 8,3 15,5l174 70c2,1 3,1 5,2l74 29c5,3 9,5 16,9l122 53c1,0 3,1 4,2 1,1 3,2 4,2l63 34c2,0 3,1 5,2l65 38c8,3 23,11 29,15l178 112c8,5 9,5 17,10l154 115c11,7 6,4 12,8l61 48c25,16 35,35 58,52l99 88c7,8 9,11 18,20l128 124 254 331c6,9 10,19 16,30 11,22 5,8 15,23l93 158c0,2 1,3 2,5 1,1 2,2 2,4 1,1 2,3 3,4l22 42c10,18 19,36 28,55l16 36c1,2 1,3 2,4l15 30c1,2 1,4 2,5l16 42c10,17 7,9 13,32l17 48c2,5 3,9 5,14 0,2 1,3 1,5l4 9c2,7 2,7 5,15l34 94c4,15 3,17 7,32l17 47c9,25 9,61 16,87l11 54c7,33 6,-5 11,34l25 142c1,6 1,12 1,18 3,80 11,78 13,105z"/>
   <path class="fil0" d="M3540 3370c-22,33 -54,61 -83,90 -4,4 -3,3 -10,10l-226 224c-1,1 -2,3 -3,4l-25 26c-25,22 -166,155 -182,185 0,1 -5,10 -6,13 -1,2 -4,8 -7,13 -25,53 -13,107 17,159 9,15 23,24 36,30 16,8 19,17 47,24l28 4c1,1 3,2 4,2 18,5 52,-2 73,-8 36,-9 68,-47 92,-75l199 -200c51,-42 91,-96 137,-140 1,-1 12,-10 14,-12l79 -76c8,-7 5,-5 13,-12 9,-9 17,-14 22,-29l20 0c8,30 44,53 67,74l155 155c9,8 15,14 23,22l247 248c1,1 2,2 3,3l48 30c3,2 12,7 12,7 12,6 -1,1 14,6 35,9 82,4 114,-10 11,-5 18,-8 27,-12 16,-9 14,-5 25,-20 18,-26 49,-82 42,-114l-10 -30c-16,-78 -80,-108 -130,-166l-248 -247c-9,-11 -9,-10 -19,-20l-109 -104c-15,-14 -26,-35 -42,-41l421 -436c33,-37 78,-65 102,-110 1,-1 2,-3 3,-4l27 -76c0,-2 2,-6 2,-8l-6 -24c-3,-18 0,-24 -5,-41 -6,-19 -21,-36 -34,-50l-82 -40c-2,-1 -3,-1 -5,-2 -2,-1 -7,-3 -9,-4l-100 21c-24,12 -101,92 -119,112 -4,5 -7,8 -9,11l-29 29c-1,1 -2,2 -3,3l-125 126c-9,9 -11,11 -20,19 -1,1 -2,3 -3,4l-161 160c-23,20 -56,41 -64,71l-20 0c-5,-15 -4,-10 -15,-22 -2,-2 -10,-9 -10,-10l-515 -502c-26,-17 -67,-22 -93,-16 -23,5 -37,3 -57,15l-39 25c-12,12 -10,11 -17,22 -33,56 -35,44 -27,128 3,35 7,24 23,49l67 74c5,5 3,3 10,9l33 32c55,56 108,115 167,168l254 254z"/>
  </g>
  <path class="fil1" d="M2879 6093l-9 0 9 0z"/>
  <path class="fil2" d="M1394 6634l-8 -8 8 8z"/>
  <path class="fil2" d="M7536 416l-8 -9 8 9z"/>
 </g>
</svg>
