<?xml version="1.0" encoding="UTF-8"?>
<!DOCTYPE svg PUBLIC "-//W3C//DTD SVG 1.0//EN" "http://www.w3.org/TR/2001/REC-SVG-20010904/DTD/svg10.dtd">
<!-- Creator: CorelDRAW X7 -->
<svg xmlns="http://www.w3.org/2000/svg" xml:space="preserve" width="77.5mm" height="66.5mm" version="1.0" style="shape-rendering:geometricPrecision; text-rendering:geometricPrecision; image-rendering:optimizeQuality; fill-rule:evenodd; clip-rule:evenodd"
viewBox="0 0 7750 6650"
 xmlns:xlink="http://www.w3.org/1999/xlink">
 <defs>
  <style type="text/css">
   <![CDATA[
    .fil6 {fill:#4F4F4F}
    .fil8 {fill:#5B5B5B}
    .fil10 {fill:#636363}
    .fil1 {fill:#6B6B6B}
    .fil5 {fill:#727272}
    .fil3 {fill:#737373}
    .fil7 {fill:#757575}
    .fil9 {fill:#777777}
    .fil4 {fill:#7A7A7A}
    .fil2 {fill:#7D7D7D}
    .fil0 {fill:#FDFDFD}
   ]]>
  </style>
 </defs>
 <g id="Слой_x0020_1">
  <metadata id="CorelCorpID_0Corel-Layer"/>
  <path class="fil0" d="M3831 5670l-9 0c-108,28 -377,14 -502,15l-294 -25c-59,-9 -120,-19 -182,-32 -235,-46 -288,-71 -502,-146l-218 -102c-197,-97 -244,-136 -401,-58 -166,83 -279,134 -483,157 -37,4 -57,8 -98,8 -48,0 -72,7 -107,7 7,-29 63,-92 85,-120l106 -146c9,-13 13,-17 22,-31 63,-98 151,-274 80,-384 -27,-42 -61,-76 -93,-113l-180 -238c-263,-396 -371,-801 -356,-1306 10,-313 133,-679 285,-950 120,-215 165,-261 308,-415 84,-91 160,-179 264,-262 22,-17 34,-27 56,-43l183 -129c24,-16 32,-24 59,-40 25,-15 43,-28 65,-43 42,-28 90,-51 137,-76l7 -7 310 -133c75,-25 280,-99 338,-103l8 -8c34,0 63,-9 91,-15 29,-7 55,-12 88,-19 127,-25 254,-34 385,-49l416 1c372,51 335,22 731,138l243 84 293 142c231,134 187,108 394,261 24,18 43,38 63,51l8 8c70,48 222,213 287,283l152 199c73,117 99,142 168,290 14,30 20,49 35,78l97 254 7 8 50 239c16,104 12,156 74,216 98,96 227,63 294,-30 28,-40 26,-65 25,-128 -2,-82 -31,-174 -46,-244 -9,-44 -14,-76 -28,-117 -73,-218 -97,-312 -209,-523l-7 -7c-8,-29 -75,-135 -95,-165l-351 -441 -131 -127c-45,-45 -93,-84 -144,-124 -84,-66 -219,-163 -308,-217l-250 -138c-16,-8 -31,-13 -47,-23 -15,-9 -22,-15 -43,-24 -35,-15 -57,-27 -90,-41 -330,-136 -558,-212 -933,-254l-244 -23 -8 0c-415,0 -485,-24 -912,63 -90,18 -313,73 -391,105l-178 65c-178,67 -418,184 -577,291 -118,79 -314,221 -416,323 -23,24 -39,43 -66,64 -30,23 -30,33 -62,60l-385 483c-92,157 -177,331 -235,505 -48,147 -76,233 -107,388 -21,105 -13,136 -26,224 -2,15 -4,37 -5,63l0 135c3,107 9,225 14,279 5,43 5,73 10,113 10,89 39,220 64,308 52,183 206,531 313,685l209 287c38,81 -218,350 -313,411 -51,34 -91,72 -119,132 -29,62 -36,135 -10,203 12,32 21,54 42,80 13,15 53,51 69,60 182,102 681,45 875,0 171,-38 321,-118 366,-129 50,-13 141,48 179,65 670,298 1373,378 2106,255 142,-24 382,-58 436,-181 12,-27 16,-79 8,-116 -13,-59 -60,-112 -109,-136 -66,-32 -149,5 -207,20 -63,17 -137,31 -207,45 -59,12 -152,30 -221,30z"/>
  <path class="fil0" d="M7015 5426l-7 8c-27,49 -66,86 -99,129 -34,43 -65,84 -110,119 -311,241 -613,339 -1050,233 -248,-60 -463,-220 -608,-420 -81,-112 -145,-254 -180,-392 -63,-255 -33,-547 79,-769 14,-28 23,-50 39,-75 15,-25 29,-44 45,-69 68,-101 135,-159 221,-236 274,-245 714,-307 1068,-195 109,34 218,90 303,153 50,37 79,64 122,107 38,37 79,74 109,120l7 7c236,350 302,740 132,1137 -11,25 -21,54 -33,74 -11,21 -31,44 -38,69zm511 -899l0 -8c-1,-1 -57,-204 -92,-281 -40,-91 -78,-161 -132,-241 -93,-140 -233,-293 -369,-385 -65,-45 -94,-68 -168,-107 -306,-163 -668,-236 -1014,-151 -161,39 -133,30 -283,90 -170,68 -366,207 -496,342 -20,21 -25,33 -46,54 -209,210 -371,629 -371,938 0,142 3,237 30,351 55,232 102,386 251,586 13,17 25,36 40,52l187 194c46,47 105,87 162,120 206,124 349,200 602,236 143,20 138,18 259,8 101,-8 141,-4 265,-25 84,-15 215,-51 289,-84 194,-88 292,-154 451,-296l177 -203c121,-165 189,-316 244,-511 48,-173 47,-337 37,-511 -4,-58 -22,-117 -23,-168z"/>
  <path class="fil0" d="M6344 5342l9 0c75,0 157,-6 195,-94 36,-84 23,-159 -35,-226l-8 -7c-52,-78 -118,-98 -175,-183 59,-113 215,-141 235,-321 21,-185 -209,-239 -321,-138 -32,29 -60,60 -91,91 -39,38 -52,63 -98,94 -38,-21 -68,-52 -95,-87 -205,-265 -424,-133 -415,33 5,101 70,171 144,230 44,35 61,51 92,98 -71,106 -131,114 -186,187 -100,131 -54,319 133,324 155,4 234,-188 327,-237 83,55 127,140 198,191 33,23 57,27 91,45z"/>
  <path class="fil0" d="M4136 3247c0,71 2,117 51,170 105,114 360,61 360,-116 0,-64 -1,-119 -51,-170 -118,-121 -360,-48 -360,116z"/>
  <path class="fil0" d="M3275 3270c0,224 255,260 351,154 106,-117 62,-278 -54,-337 -127,-65 -297,20 -297,183z"/>
  <path class="fil0" d="M2779 3141l-7 -8c-47,-64 -195,-91 -298,-15 -83,61 -76,223 -9,299 102,117 331,69 359,-118 10,-69 -14,-112 -45,-158z"/>
  <path class="fil1" d="M7526 4527l0 -8 0 8z"/>
  <path class="fil2" d="M6513 5022l-8 -7 8 7z"/>
  <path class="fil2" d="M6353 5342l-9 0 9 0z"/>
  <path class="fil3" d="M7015 5426l-7 8 7 -8z"/>
  <path class="fil4" d="M3831 5670l-9 0 9 0z"/>
  <path class="fil5" d="M6177 2661l-7 -8 7 8z"/>
  <path class="fil6" d="M3694 490l-8 0 8 0z"/>
  <path class="fil7" d="M2719 947l-8 8 8 -8z"/>
  <path class="fil8" d="M2063 1191l-7 7 7 -7z"/>
  <path class="fil7" d="M5431 1549l-8 -8 8 8z"/>
  <path class="fil9" d="M6337 2074l-7 -7 7 7z"/>
  <path class="fil10" d="M2779 3141l-7 -8 7 8z"/>
  <path class="fil1" d="M6954 4146l-7 -7 7 7z"/>
 </g>
</svg>
