<?xml version="1.0" standalone="no"?>
<!DOCTYPE svg PUBLIC "-//W3C//DTD SVG 20010904//EN"
 "http://www.w3.org/TR/2001/REC-SVG-20010904/DTD/svg10.dtd">
<svg version="1.0" xmlns="http://www.w3.org/2000/svg"
 width="564.000000pt" height="423.000000pt" viewBox="0 0 564.000000 423.000000"
 preserveAspectRatio="xMidYMid meet">
<metadata>
Created by potrace 1.15, written by Peter Selinger 2001-2017
</metadata>
<g transform="translate(0.000000,423.000000) scale(0.100000,-0.100000)"
fill="#000000" stroke="none">
<path d="M1640 3969 c-13 -6 -39 -21 -57 -35 -66 -50 -62 45 -57 -1716 3
-1003 8 -1604 15 -1624 12 -38 63 -88 109 -108 87 -36 127 -32 400 38 480 123
463 116 502 204 l19 42 -27 49 -28 49 -17 -50 c-18 -54 -57 -101 -98 -118 -15
-6 -85 -22 -156 -35 -433 -81 -424 -80 -457 -67 -40 15 -50 7 -12 -10 18 -8
70 -12 134 -12 l105 1 -60 -15 c-92 -22 -173 -21 -215 3 -73 43 -70 11 -70
768 0 583 2 682 15 707 12 23 15 73 15 255 -1 171 2 231 12 243 10 12 10 14 1
8 -10 -6 -13 125 -13 639 0 698 0 702 53 726 34 15 180 -43 211 -84 11 -16 40
-37 63 -48 131 -59 283 -139 267 -139 -11 0 -26 -5 -34 -10 -11 -7 -4 -14 35
-31 l49 -22 21 27 c11 14 26 26 33 26 20 0 82 -37 75 -44 -4 -4 -1 -4 8 -1 10
4 20 -6 32 -30 10 -20 15 -41 12 -46 -4 -5 -1 -9 4 -9 7 0 11 -49 11 -144 l0
-145 -73 -74 c-81 -83 -125 -109 -212 -126 -152 -30 -156 -31 -171 -67 -8 -18
-14 -56 -14 -83 0 -63 -19 -86 -90 -109 -41 -13 -60 -26 -78 -52 -28 -41 -26
-61 14 -187 24 -76 28 -82 43 -69 9 8 36 18 59 22 73 12 86 30 90 123 3 57 9
84 20 93 9 8 58 15 131 18 85 4 126 11 155 25 56 27 117 115 145 208 12 42 27
79 32 82 5 3 18 1 29 -5 31 -16 24 -74 -8 -78 -13 -2 -21 -9 -19 -15 10 -29
74 9 79 47 2 17 9 21 33 19 l30 -2 -27 10 c-31 12 -37 29 -12 29 9 0 34 10 55
22 38 21 57 54 46 81 -7 19 -97 65 -158 80 l-54 14 3 109 c5 138 -11 232 -47
281 -30 41 -129 94 -526 280 -198 92 -200 93 -275 92 -41 0 -86 -5 -100 -10z"/>
<path d="M5445 3793 c-38 -9 -47 -25 -41 -66 5 -26 2 -45 -9 -60 -8 -12 -15
-30 -15 -41 0 -11 -12 -33 -27 -48 -15 -15 -21 -28 -15 -28 7 0 12 -4 12 -10
0 -19 -49 -10 -60 11 -16 29 4 53 32 38 15 -8 23 -8 28 2 22 35 -28 78 -91 79
-54 0 -92 -24 -107 -70 -16 -45 21 -85 93 -100 89 -18 122 -84 70 -136 -20
-20 -34 -25 -63 -22 -37 3 -37 3 -37 48 0 25 -3 50 -7 56 -12 18 -93 37 -127
29 -39 -8 -40 -25 -2 -25 34 0 49 -15 25 -24 -22 -8 -43 -7 -86 4 -42 12 -59
39 -29 47 38 10 35 40 -6 62 -74 38 -305 -36 -344 -111 -6 -13 -13 -24 -14
-26 -2 -2 -14 3 -27 11 -12 7 -29 13 -35 12 -7 -2 -22 -3 -33 -4 -11 0 -29
-10 -40 -21 -16 -16 -18 -25 -10 -45 6 -15 10 -28 10 -31 0 -8 -42 -4 -63 8
-12 6 -35 11 -51 12 -35 1 -46 22 -17 31 26 8 27 27 3 48 -34 31 -102 12 -102
-27 0 -15 34 -47 78 -72 35 -20 43 -39 12 -29 -15 5 -20 2 -20 -13 0 -46 -75
-61 -125 -24 -17 11 -41 24 -55 27 -23 5 -26 3 -25 -22 0 -28 0 -28 -70 -29
-38 0 -75 -2 -82 -2 -19 -3 -25 -40 -13 -78 14 -40 40 -54 105 -54 54 0 75 -8
75 -27 0 -12 -6 -14 -27 -8 -47 12 -81 9 -99 -9 -16 -16 -15 -18 5 -32 30 -21
27 -29 -18 -46 -32 -13 -39 -20 -34 -36 7 -29 -24 -36 -78 -17 -35 13 -48 13
-67 4 -24 -13 -38 -49 -28 -74 9 -25 78 -19 121 10 40 28 62 26 90 -5 26 -29
14 -43 -35 -44 -41 -1 -45 -3 -50 -30 -8 -43 -32 -54 -64 -28 -50 39 -82 -4
-47 -62 28 -45 27 -55 -11 -70 -34 -15 -53 -12 -80 11 -18 16 -53 10 -61 -11
-3 -7 0 -24 7 -37 9 -19 22 -25 59 -29 26 -3 52 -11 59 -18 19 -19 46 -14 64
13 17 27 61 34 81 14 17 -17 4 -39 -22 -39 -29 0 -38 -13 -30 -40 16 -49 79
-50 107 0 12 21 25 30 43 30 14 0 36 7 49 15 22 14 25 14 40 -1 10 -9 15 -23
11 -32 -3 -8 1 -25 10 -38 13 -21 21 -22 102 -20 85 2 88 3 97 28 6 18 4 37
-7 66 -14 35 -14 42 -1 61 10 14 26 21 49 21 48 0 127 -28 148 -52 23 -28 23
-85 -2 -93 -28 -9 -51 4 -57 34 -10 45 -12 48 -37 53 -35 7 -67 -8 -67 -32 0
-25 34 -60 59 -60 24 0 44 -24 39 -47 -2 -13 -15 -19 -43 -23 -37 -5 -40 -8
-43 -39 -3 -26 -10 -36 -33 -44 -36 -14 -37 -39 -2 -67 19 -15 35 -19 53 -15
81 20 103 57 47 80 -33 14 -52 37 -40 49 4 3 26 6 50 6 34 0 48 -6 65 -25 29
-34 46 -32 84 11 23 25 40 35 56 32 39 -5 25 -32 -34 -63 -70 -37 -71 -39 -63
-64 4 -13 18 -23 41 -27 19 -3 38 -13 42 -21 13 -22 63 -52 78 -46 8 3 11 16
7 39 l-6 34 54 0 c71 0 124 -26 124 -60 0 -25 -1 -25 -79 -23 l-78 3 7 -46 c9
-60 -4 -68 -62 -42 -24 11 -51 17 -59 14 -20 -8 -17 -59 6 -83 44 -48 97 -34
124 32 18 41 37 45 60 10 22 -34 20 -47 -14 -80 -16 -16 -30 -37 -30 -47 0
-29 36 -22 60 12 17 23 29 30 56 30 35 0 84 -24 84 -41 0 -5 -11 -14 -25 -19
-14 -5 -25 -16 -25 -25 0 -8 11 -22 25 -31 14 -9 25 -25 25 -35 0 -10 5 -21
11 -24 6 -4 14 -17 19 -29 13 -34 -15 -56 -70 -56 -33 0 -52 -6 -63 -18 -34
-37 -11 -71 36 -53 12 5 46 32 75 60 52 51 88 64 98 37 6 -16 77 -56 99 -56
27 0 27 22 0 50 -36 37 -28 60 20 60 53 0 77 -15 69 -46 -8 -31 9 -52 51 -60
48 -9 72 8 80 57 l7 41 47 -7 c55 -8 91 -9 97 -2 3 3 0 14 -7 25 -15 25 -5 55
18 50 12 -2 18 -13 18 -32 0 -29 26 -48 53 -39 9 4 12 205 12 959 l0 954 -21
0 c-11 0 -36 -12 -55 -26 -29 -23 -35 -24 -40 -10 -4 9 1 25 10 35 9 10 16 29
16 42 0 25 -32 69 -50 69 -4 0 -14 2 -22 4 -7 2 -22 1 -33 -1z"/>
<path d="M3273 2762 c-22 -32 -69 -87 -103 -124 -41 -46 -57 -70 -48 -73 10
-4 12 -30 10 -115 -2 -61 -7 -110 -13 -110 -5 0 -9 -16 -9 -35 0 -21 -6 -37
-16 -43 -15 -8 -15 -12 -2 -30 11 -16 13 -42 11 -99 l-4 -78 20 25 c11 14 21
28 21 33 0 4 3 6 8 5 4 -1 17 3 30 10 12 7 22 9 22 5 0 -4 5 -2 12 5 17 17 47
15 54 -3 4 -8 12 -15 19 -15 10 0 13 23 12 95 -1 52 -5 95 -9 95 -4 0 -4 87
-1 193 4 139 3 199 -6 215 -9 18 -9 22 2 22 11 0 42 69 34 76 -1 1 -21 -23
-44 -54z"/>
<path d="M1830 2238 c-33 -51 -60 -96 -60 -100 0 -3 -5 -19 -11 -35 -7 -15
-14 -37 -16 -48 -7 -31 -9 -314 -2 -309 9 5 31 -155 23 -168 -4 -7 -3 -8 4 -4
7 4 12 1 12 -8 0 -20 -1 -20 145 -1 180 24 304 46 365 65 30 10 75 21 100 25
25 4 50 10 57 14 8 4 -14 51 -68 145 -43 76 -79 142 -79 147 0 5 -4 9 -10 9
-5 0 -10 4 -10 9 0 19 -82 151 -91 146 -5 -4 -6 2 -2 11 4 12 3 15 -6 10 -6
-4 -11 -4 -10 1 7 39 -26 80 -91 113 -43 22 -168 70 -182 70 -5 0 -36 -41 -68
-92z"/>
<path d="M2525 1946 c-4 -122 -5 -259 -2 -306 4 -62 131 -727 141 -736 0 -1
129 -5 286 -8 157 -4 280 -3 275 1 -6 4 -19 21 -29 36 -12 20 -23 27 -37 24
-28 -7 -49 19 -49 59 0 24 -8 43 -25 60 -28 28 -32 52 -10 60 20 8 28 40 15
64 -14 26 -52 26 -75 0 -36 -40 -74 -18 -61 36 5 18 20 31 52 45 57 26 72 58
38 79 -34 21 -30 30 16 30 32 0 40 4 40 19 0 24 -19 39 -50 39 -14 0 -35 3
-47 7 -15 5 -27 1 -39 -14 -22 -25 -72 -28 -81 -5 -8 22 9 48 36 52 18 3 21
10 21 48 0 37 -3 44 -19 44 -11 0 -23 -5 -26 -10 -4 -6 -15 0 -27 15 -22 29
-40 32 -58 10 -10 -13 -10 -19 4 -33 20 -23 20 -32 1 -32 -19 0 -19 -9 1 -31
23 -26 10 -38 -36 -32 -45 6 -48 0 -22 -46 15 -28 15 -33 2 -41 -12 -7 -28 4
-71 50 -41 45 -62 60 -82 60 l-27 0 0 315 0 314 -24 24 -24 24 -7 -221z"/>
<path d="M3690 2034 c-30 -7 -86 -18 -125 -24 -181 -28 -210 -36 -213 -54 -4
-18 35 -54 51 -48 5 1 6 -2 3 -7 -4 -5 1 -14 11 -19 17 -10 77 17 263 119 103
56 103 56 10 33z"/>
<path d="M4420 1909 c0 -5 -13 -15 -30 -20 -40 -14 -38 -23 10 -39 37 -12 45
-21 41 -43 -1 -5 3 -6 8 -3 5 4 12 2 16 -4 4 -6 -14 -10 -48 -10 l-55 0 -5
-57 c-2 -32 -3 -59 -2 -61 2 -2 15 9 29 23 15 15 32 25 39 22 18 -6 20 -62 3
-77 -20 -16 -20 -64 -1 -80 9 -7 14 -19 11 -27 -9 -23 2 -15 79 61 l75 74 0
56 c0 74 -18 106 -85 156 -53 39 -85 50 -85 29z"/>
<path d="M3408 1822 c-19 -26 -37 -52 -40 -58 -4 -6 13 -35 37 -64 24 -29 41
-58 38 -63 -3 -6 -2 -7 3 -4 5 3 39 -24 74 -60 104 -106 154 -137 352 -223
102 -44 189 -80 194 -80 29 0 67 -54 103 -145 22 -55 56 -131 75 -168 40 -76
43 -108 20 -186 -8 -29 -14 -54 -12 -54 2 -1 47 -17 100 -35 53 -18 145 -55
203 -82 58 -28 112 -50 119 -50 28 0 39 35 60 183 l22 152 29 -45 c16 -25 41
-86 57 -137 l29 -92 -24 -48 c-34 -66 -58 -140 -51 -156 7 -19 96 -67 122 -67
14 0 19 5 17 18 -2 9 -6 32 -9 50 l-6 32 45 -2 c34 -1 46 -6 51 -20 3 -11 4
-21 2 -22 -1 -1 -14 -10 -28 -20 -14 -10 -18 -17 -10 -16 22 3 60 -11 60 -21
0 -15 313 -11 334 4 24 17 35 76 29 147 -5 55 -8 60 -29 60 -28 0 -32 25 -10
56 11 15 27 19 67 19 l52 0 18 90 c10 50 18 98 19 108 0 10 -20 52 -45 94 -34
58 -42 80 -35 94 27 50 -14 99 -83 99 -22 0 -38 -3 -34 -6 3 -3 -4 -16 -17
-29 -31 -31 -44 -106 -56 -325 -10 -183 -16 -230 -29 -230 -4 0 -13 48 -20
108 -7 59 -18 143 -26 187 -7 44 -17 105 -21 135 -4 30 -9 49 -11 43 -3 -7
-24 -21 -47 -32 -24 -10 -56 -35 -71 -54 l-28 -35 -24 71 c-13 39 -51 119 -84
178 -34 61 -57 114 -53 120 4 7 3 9 -3 6 -6 -4 -22 15 -36 42 -15 26 -47 67
-71 89 -25 23 -39 43 -33 45 7 3 1 5 -13 5 -14 0 -48 6 -77 13 -45 11 -55 11
-70 -3 -10 -9 -40 -27 -68 -41 -27 -14 -81 -46 -120 -72 -64 -43 -70 -45 -82
-29 -19 26 -16 74 7 119 17 33 18 44 8 77 -10 35 -16 40 -62 53 -28 8 -87 17
-131 20 -103 7 -148 13 -210 31 -62 18 -89 34 -267 159 -78 55 -147 103 -154
107 -8 5 -24 -9 -46 -40z"/>
<path d="M2657 552 c-6 -32 2 -90 15 -98 21 -13 57 -13 65 0 7 12 14 12 48 -4
52 -25 175 -28 175 -5 0 8 -6 15 -13 15 -7 0 -30 9 -51 20 -35 17 -41 18 -60
5 -37 -26 -62 -18 -106 34 -52 61 -66 68 -73 33z"/>
<path d="M2549 433 c-5 -32 -3 -83 4 -83 4 0 7 -6 7 -14 0 -7 7 -19 15 -26 9
-7 13 -15 10 -18 -3 -3 5 -10 18 -17 12 -6 21 -18 21 -27 -1 -11 5 -15 17 -13
11 2 20 0 20 -6 1 -5 2 -13 3 -18 0 -5 5 -13 10 -18 5 -5 6 -3 2 5 -8 14 3 16
23 3 8 -5 10 -14 6 -22 -6 -11 -5 -11 5 -2 10 9 22 6 57 -18 24 -17 41 -35 37
-40 -7 -12 62 16 96 39 l25 17 -25 3 c-14 2 -33 11 -42 19 -16 15 -16 17 2 41
11 13 20 32 20 40 0 13 -2 13 -18 -1 -13 -12 -21 -14 -29 -6 -8 8 -13 7 -18
-1 -5 -8 -11 -6 -21 7 -8 11 -13 13 -14 6 0 -19 -20 -16 -20 3 0 14 -3 14 -15
4 -12 -10 -15 -10 -15 4 0 20 -9 20 -32 -1 -17 -16 -20 -15 -54 18 -45 43 -65
80 -57 107 4 18 1 22 -16 22 -11 0 -22 -3 -22 -7z"/>
</g>
</svg>
