<?xml version="1.0" encoding="UTF-8"?>
<!DOCTYPE svg PUBLIC "-//W3C//DTD SVG 1.1//EN" "http://www.w3.org/Graphics/SVG/1.1/DTD/svg11.dtd">
<!-- Creator: CorelDRAW X7 -->
<svg xmlns="http://www.w3.org/2000/svg" xml:space="preserve" width="297mm" height="210mm" version="1.1" style="shape-rendering:geometricPrecision; text-rendering:geometricPrecision; image-rendering:optimizeQuality; fill-rule:evenodd; clip-rule:evenodd"
viewBox="0 0 29700 21000"
 xmlns:xlink="http://www.w3.org/1999/xlink">
 <defs>
  <style type="text/css">
   <![CDATA[
    .str0 {stroke:#2B2A29;stroke-width:20}
    .fil0 {fill:none}
    .fil22 {fill:#FEFEFE}
    .fil23 {fill:#1240AB}
    .fil18 {fill:#4F4F4F}
    .fil19 {fill:#5B5B5B}
    .fil9 {fill:#5C5C5C}
    .fil3 {fill:#5D5D5D}
    .fil7 {fill:#5E5E5E}
    .fil21 {fill:#636363}
    .fil6 {fill:#6A6A6A}
    .fil15 {fill:#6B6B6B}
    .fil4 {fill:#6C6C6C}
    .fil13 {fill:#6F6F6F}
    .fil10 {fill:#707070}
    .fil17 {fill:#727272}
    .fil16 {fill:#737373}
    .fil5 {fill:#757575}
    .fil12 {fill:#767676}
    .fil20 {fill:#777777}
    .fil14 {fill:#787878}
    .fil11 {fill:#7A7A7A}
    .fil2 {fill:#7B7B7B}
    .fil8 {fill:#7D7D7D}
    .fil1 {fill:#FDFDFD}
   ]]>
  </style>
 </defs>
 <g id="Слой_x0020_1">
  <metadata id="CorelCorpID_0Corel-Layer"/>
  <rect class="fil0 str0" width="29700" height="21000"/>
  <g id="_1617059739664">
   <path class="fil1" d="M4736 18736l-8 0 -74 -41c-62,-35 -100,-38 -155,-15l-72 43c-1,1 -3,2 -4,2l-189 83c-1,0 -3,1 -4,1 -2,1 -4,1 -5,2l-24 9c-1,0 -3,1 -4,2l-74 16c-17,5 6,0 -15,5l-255 41c-55,0 -111,0 -167,0 6,-6 1,-1 11,-9l45 -45c0,-1 1,-3 2,-4l71 -84c0,-1 1,-3 2,-4l97 -141c1,-2 1,-3 2,-5 1,-1 1,-3 2,-4l17 -28c1,-2 2,-3 3,-4 0,-1 2,-2 3,-3l53 -108c5,-12 6,-15 11,-28 2,-4 4,-8 6,-13 2,-7 2,-9 4,-15l8 -18c7,-16 12,-16 16,-35 8,-40 3,-107 -21,-138l-27 -25c-26,-27 -23,-35 -68,-79l-33 -45c-10,-14 -30,-27 -38,-39 -9,-14 -2,-8 -14,-25 -7,-10 -10,-11 -17,-21l-58 -84c-1,-2 -2,-3 -2,-4l-78 -129c-11,-25 -26,-39 -40,-63 -1,-1 -1,-3 -2,-4l-4 -9c-3,-4 -5,-9 -7,-13l-23 -41c-14,-23 -18,-60 -32,-84 -1,-1 -2,-3 -2,-4l-7 -12c-1,-2 -4,-7 -5,-9 0,-1 -1,-3 -2,-4l-32 -77c-2,-6 -3,-9 -5,-15l-70 -233c-13,-50 -11,-80 -19,-116 -4,-21 -11,-27 -11,-53 0,-27 -9,-38 -13,-65 -3,-21 3,-54 0,-76 -4,-37 -13,-13 -13,-64 -1,-78 -5,-163 0,-239 3,-44 12,-15 14,-64 3,-107 9,-65 12,-110 1,-12 -1,-26 0,-38l33 -167c2,-13 0,-4 3,-16l8 -18c1,-1 6,-14 6,-14l45 -155c0,-2 3,-7 3,-9 4,-10 7,-19 11,-28l44 -97c15,-27 14,-56 32,-84l8 -12c1,-1 2,-2 2,-4l11 -21c1,-1 2,-3 2,-4l154 -259c25,-31 40,-46 59,-82 8,-15 7,-13 17,-22 12,-11 9,-4 20,-19 10,-14 3,-10 17,-28 12,-15 26,-23 38,-39l63 -72c49,-51 159,-170 213,-206 19,-13 24,-22 40,-37 23,-22 25,-12 45,-32 29,-28 63,-41 94,-68l239 -159c10,-5 16,-8 25,-14l35 -17c23,-12 38,-27 65,-38l55 -29c1,0 3,-1 4,-2l132 -54c11,-4 17,-7 27,-12 1,-1 3,-2 4,-2l55 -23c8,-4 7,-4 13,-6l103 -33c3,-1 23,-12 25,-13l126 -35c1,-1 3,-2 5,-2 1,-1 3,-1 4,-2l74 -22c33,-11 86,-14 114,-22l63 -14c19,-6 14,-3 34,-5 36,-5 5,-2 30,-9 26,-7 43,1 69,-8 30,-10 38,-7 75,-8l145 -11c25,-7 -8,-4 29,-9 10,-1 28,0 39,0 109,1 249,-7 354,0 47,3 28,14 110,13l115 6c44,4 27,12 65,13 7,1 10,0 18,1 18,3 24,10 53,12l47 11c11,2 8,1 17,2l332 87c1,0 3,1 5,2 1,0 3,1 4,1 2,1 3,2 5,2 1,1 3,1 4,2 38,14 79,20 116,39l190 80c44,16 85,40 128,59 1,1 3,2 4,2l167 98c6,4 4,3 11,8l60 37c19,11 22,6 40,24l122 90c9,8 6,6 10,10l21 17c2,1 3,2 4,2 2,1 3,2 5,3l7 5c23,16 39,38 64,52 10,6 2,0 11,8l239 238c21,21 31,46 51,65l70 85c5,8 2,5 7,12 0,1 1,3 2,4 1,2 2,3 2,4l139 209c1,2 1,3 2,5 1,1 2,3 2,4l131 255c1,2 2,3 3,5l13 25c0,1 1,3 2,4 0,2 1,3 2,5 8,24 6,39 16,61 27,58 37,107 51,167l38 143c4,33 11,29 13,64 1,13 -1,25 1,38 4,25 5,8 10,29 6,27 -1,70 8,94 1,2 2,3 2,5 11,31 8,259 5,318 0,7 0,11 -2,17 -15,72 -6,12 -11,92 -2,36 -11,35 -13,71l-61 274c0,1 -1,3 -1,5l-26 64c-1,5 -3,10 -5,15 -2,6 -3,12 -6,19 0,2 -1,3 -2,5l-88 214c-1,1 -2,3 -3,4l-30 67c0,0 -6,13 -6,13 -6,10 0,1 -8,11l-17 21c-1,2 -2,3 -2,5 -1,1 -4,6 -5,8l-57 104c0,0 -8,10 -8,11l-67 94c-1,1 -2,3 -3,4l-32 38c-6,10 -3,7 -9,17l-32 45c-6,9 -11,14 -18,21l-20 18c-3,3 -8,10 -9,11l-243 252c-15,13 -11,7 -24,16 -22,16 -38,39 -61,54l-53 44c-1,1 -2,2 -3,3 -1,1 -3,2 -4,3l-101 73c-7,5 -3,2 -11,8l-26 19c-2,0 -4,1 -5,2 -1,0 -3,1 -4,2l-208 127c-1,1 -3,2 -4,2l-218 111c-15,6 -20,4 -36,9l-86 37c-1,0 -3,1 -4,1l-111 38c-1,1 -3,1 -4,2 -2,0 -3,1 -5,2l-423 111c-2,1 -3,1 -5,2l-107 15c-44,3 -14,12 -64,14l-148 6c-10,0 -29,-1 -39,0 -33,4 -9,4 -34,11 -26,6 -303,11 -350,0 -21,-5 -4,-6 -29,-10 -20,-4 -61,-1 -83,-1l-109 -7c-33,-4 -9,-4 -34,-10 -26,-7 -44,2 -71,-7l-9 -4c-2,0 -3,-1 -5,-1l-48 -10c-46,-15 -146,-27 -199,-40 -1,0 -3,-1 -5,-1l-182 -56c-2,-1 -3,-1 -5,-2l-33 -12c-6,-2 -6,-2 -14,-5l-173 -65c-35,-15 -63,-21 -96,-39 -2,-1 -3,-2 -4,-3l-38 -20c-12,-7 -15,-8 -25,-13l-57 -27zm4456 -2226l0 360c-1,13 -2,22 -3,27 -23,74 0,66 -13,110 -12,39 -6,48 -12,71 -1,2 -1,3 -2,5l-8 30c-2,16 1,20 -3,36l-4 9c0,2 -1,3 -2,5l-4 21c-1,7 0,10 -2,18l-10 35c-1,5 -2,11 -2,17 -2,12 -3,19 -5,34l-60 184c-1,2 -1,3 -2,5 -3,8 -3,11 -6,20l-12 26c-1,1 -2,3 -2,4l-111 263c-1,2 -4,7 -5,8 0,1 -1,3 -2,4l-23 41c-12,20 6,-12 -5,9l-44 84c0,1 -9,16 -10,17l-34 49c-6,9 2,-6 -8,12 -47,84 -39,56 -68,99 -9,12 -7,12 -14,25 -3,6 -5,8 -10,15l-61 81c-28,27 -42,55 -58,71l-42 41c-7,10 -2,2 -7,12 -5,7 -2,5 -7,13 -15,24 -38,33 -56,53 -1,1 -2,3 -3,4l-145 144c-7,8 -2,3 -9,11 -14,17 -31,21 -47,37 -31,31 -35,27 -61,48 -9,8 -5,5 -10,10 -5,5 -13,14 -19,19l-63 46c-10,7 1,-2 -12,8 -9,6 -12,11 -21,18l-305 196c-35,14 -50,31 -82,48l-12 7c-7,4 -6,3 -12,7l-126 55c-2,0 -7,3 -9,3 0,0 -10,6 -13,7 -1,1 -3,2 -4,2l-20 12c-18,10 -9,7 -32,13l-30 9c-1,1 -3,2 -4,3l-206 83c-9,2 -18,3 -31,7 -2,1 -4,2 -5,2l-9 4c-2,0 -4,1 -5,2l-118 36c-76,29 -72,12 -115,27l-184 41c-14,4 6,5 -31,8 -20,2 -21,-2 -41,4 -26,7 7,4 -30,9l-71 13c-54,6 -160,-1 -199,13 -8,3 -23,5 -43,6l-419 0c-29,-1 -41,-7 -61,-11l-216 -17c-7,-2 4,-1 -15,-4l-265 -50c-7,-2 -11,-1 -17,-2 -2,-1 -4,-1 -6,-1 -2,-1 -3,-1 -5,-2l-19 -6c-1,-1 -3,-2 -5,-2l-72 -12c-1,0 -12,-4 -14,-5l-161 -51c-6,-3 -5,-3 -15,-5 -11,-2 -19,-3 -32,-7 -1,0 -3,-1 -4,-1l-115 -47c-21,-8 -11,-1 -33,-12l-154 -65c-18,-10 11,5 -8,-5l-96 -45c-20,-12 -37,-18 -54,-30l-80 43c-1,1 -3,2 -4,2l-59 25c-19,7 -9,2 -28,11 -9,4 -19,9 -26,12l-38 14c-1,1 -3,1 -4,2 -2,0 -4,1 -5,1l-317 70c-50,2 -20,12 -70,14 -26,1 -56,-5 -82,2 -20,5 -4,5 -29,9 -9,2 -27,2 -37,2 -44,-1 -120,7 -158,-4 -21,-7 3,-7 -35,-10 -32,-2 -83,11 -110,-6l-7 -7c-55,2 -50,2 -75,-7 -2,-1 -3,-2 -5,-2 -1,-1 -3,-1 -5,-2 -26,-10 -39,-24 -65,-38 -25,-13 -31,-17 -46,-43l-22 -37c-19,-44 -20,-71 -20,-122l10 -61c0,-1 1,-3 1,-5l8 -24c14,-29 40,-51 62,-74l228 -202c1,-1 3,-3 4,-4 1,0 2,-2 3,-3 1,-1 2,-2 3,-3l23 -35c1,-2 6,-7 9,-10 33,-35 59,-90 67,-107l5 -9c17,-33 23,-54 41,-61 -2,-29 -20,-37 -36,-55l-169 -229c-1,-2 -2,-3 -3,-4 -1,-2 -2,-3 -2,-4l-10 -17c-1,-1 -2,-2 -3,-3 -3,-4 -8,-10 -8,-11l-25 -40c0,0 -7,-11 -7,-12l-64 -110c0,-2 -1,-3 -2,-4l-57 -117c-1,-1 -2,-3 -3,-4l-4 -9c-36,-68 -22,-48 -50,-117 -1,-2 -3,-7 -4,-9 -1,-1 -1,-3 -2,-4 0,-2 -1,-4 -1,-5l-24 -54c-1,-1 -1,-3 -2,-5l-14 -43c-3,-14 -3,-21 -9,-37l-17 -47c0,-2 -1,-3 -1,-5l-52 -193c-16,-52 -16,-108 -24,-163 -3,-17 -2,-9 -4,-15 -10,-31 -4,-61 -9,-94 -6,-45 -3,2 -11,-34 -9,-42 -2,-308 -2,-373 0,-41 10,-26 14,-70 2,-29 -5,-52 4,-79 6,-18 1,12 7,-19 2,-7 1,-10 2,-18l20 -153 58 -199c1,-2 2,-3 2,-5 1,-2 1,-3 2,-5 2,-6 2,-8 4,-15l34 -108c23,-57 40,-114 70,-168l29 -54c5,-12 5,-18 10,-29l140 -240c1,-1 2,-2 3,-3l174 -239c1,-1 2,-2 3,-4l323 -339c41,-26 48,-43 67,-56l47 -36c14,-14 11,-12 26,-20l73 -56c19,-20 15,-10 34,-23 1,-1 2,-2 3,-3l369 -224c2,0 3,-1 5,-2l117 -56c4,-2 16,-9 17,-9l187 -77c1,-1 3,-2 4,-3l37 -14c2,0 4,-1 5,-2 2,0 3,-1 5,-1l42 -16c36,-13 74,-17 110,-32l18 -7c1,-1 3,-2 4,-2l61 -17c6,-2 12,-4 19,-7l183 -43c41,-4 67,-18 104,-24 13,-2 25,0 37,-2 46,-6 -3,-3 34,-11 20,-4 41,2 61,-4 1,0 3,-1 4,-2 31,-10 56,-3 87,-9 25,-4 9,-5 29,-10l159 -8c140,-1 279,-1 419,0l159 8c38,10 23,10 73,11 50,1 20,12 70,13l577 138c7,2 8,2 15,4l175 71c1,0 3,1 4,1l74 29c6,3 10,6 17,10l121 52c2,1 3,2 4,2 2,1 3,2 5,3l63 33c1,1 3,2 4,2l65 38c9,4 24,11 30,16l178 111c7,5 8,5 16,10l155 116c10,7 6,3 12,7l61 49c25,16 34,34 57,52l99 87c7,8 10,12 18,21l128 123 255 331c6,9 10,20 15,30 12,22 5,9 15,24l93 158c1,1 2,3 2,4 1,1 2,3 3,4 0,1 1,3 2,4l23 42c9,19 19,37 28,56l15 36c1,1 2,3 3,4l15 30c0,1 1,3 1,5l17 41c9,17 6,9 12,33l17 47c2,6 3,9 5,15 1,1 1,3 2,4l3 10c3,6 3,7 5,14l34 95c5,14 3,17 7,32l17 47c9,25 9,60 17,86l10 54c7,33 6,-5 11,34l25 143c2,5 2,11 2,18 2,79 10,77 12,105z"/>
   <path class="fil1" d="M5908 16688c-23,34 -55,62 -84,90 -4,5 -2,3 -10,10l-226 225c-1,1 -2,2 -3,3l-25 26c-25,23 -166,156 -182,186 0,0 -4,9 -6,13 -1,1 -4,8 -6,13 -26,52 -14,107 17,159 9,15 22,23 35,29 16,8 19,18 47,24l28 5c2,0 3,1 5,1 18,5 51,-1 73,-7 36,-10 67,-48 91,-76l200 -200c51,-41 90,-96 137,-140 1,-1 11,-9 14,-11l78 -76c8,-7 6,-5 14,-13 9,-9 16,-13 22,-29l19 0c8,30 44,54 67,74l155 155c10,9 15,14 23,22l248 248c0,1 2,3 3,4l47 29c4,2 12,7 13,7 12,6 -2,2 13,6 35,10 83,5 114,-10 11,-5 19,-8 27,-12 16,-8 15,-5 25,-20 18,-26 50,-82 42,-113l-10 -30c-15,-79 -79,-109 -130,-166l-248 -248c-9,-11 -8,-10 -19,-20l-108 -104c-16,-14 -27,-35 -43,-41l421 -435c33,-38 79,-65 103,-110 0,-1 1,-3 2,-4l27 -76c1,-2 2,-7 2,-8l-6 -25c-3,-17 0,-24 -5,-40 -5,-19 -21,-37 -33,-51l-83 -40c-1,0 -3,-1 -5,-1 -2,-1 -7,-4 -9,-4l-99 21c-24,11 -102,92 -120,112 -4,4 -6,7 -9,10l-28 29c-1,1 -3,3 -4,3l-125 127c-8,8 -10,11 -19,19 -1,1 -3,2 -4,3l-161 161c-23,19 -56,41 -64,71l-19 0c-6,-16 -5,-11 -16,-23 -1,-1 -9,-9 -10,-9l-515 -503c-25,-17 -67,-22 -93,-16 -23,6 -36,4 -57,15l-39 25c-12,12 -10,12 -16,23 -34,55 -35,44 -27,127 3,35 7,25 22,49l68 74c5,5 3,3 9,10l33 32c56,55 108,115 167,167l255 254z"/>
  </g>
  <path class="fil1" d="M3838 8169c0,12 4,9 -8,9l-14 15c-91,98 -183,192 -264,300l-182 267c-86,145 -132,245 -192,402 -73,190 -117,409 -140,615 -18,171 6,422 23,570 30,268 114,460 210,688 73,171 193,303 292,455 21,32 41,55 61,90l0 9c-39,74 -82,136 -133,202 -36,47 -98,105 -147,143 -10,7 -17,14 -25,20l-7 8c-40,27 -96,69 -114,115 -10,26 -19,65 -22,93 -5,42 11,67 14,104l7 8c58,243 491,183 655,183l8 0c101,-24 207,-30 352,-67 65,-17 170,-52 230,-83 28,-15 38,-25 79,-25l10 0 363 162c28,11 54,19 79,27 283,94 560,159 891,168 39,1 47,8 91,8 168,1 341,-4 508,-25 112,-14 435,-68 531,-110 123,-52 140,-197 81,-284l-7 -7c-65,-96 -178,-66 -266,-45 -260,66 -235,47 -464,77 -144,19 -298,14 -444,14 -73,-1 -345,-34 -404,-46 -100,-19 -202,-41 -294,-72 -221,-74 -184,-61 -397,-152l-124 -58 -7 -8 -94 -50c-92,-38 -192,44 -325,103 -140,62 -355,92 -511,92 29,-44 67,-88 99,-130 81,-105 249,-362 173,-500 -36,-65 -156,-186 -206,-258 -35,-49 -62,-92 -93,-144 -16,-27 -27,-46 -42,-72 -5,-10 -5,-9 -11,-20 -137,-276 -205,-455 -241,-787 -14,-126 -13,-321 4,-447 15,-104 55,-291 90,-383 33,-90 55,-153 100,-243l173 -299c46,-66 153,-203 208,-257 128,-128 232,-225 376,-332 25,-18 44,-27 69,-45 25,-20 42,-29 69,-45l230 -129c109,-64 371,-160 505,-196 89,-24 309,-78 394,-78l8 -7c121,-1 382,-36 502,-22 398,45 370,15 782,132 101,28 111,37 199,68l183 75c31,15 61,36 94,44l7 7c21,11 73,41 92,46l8 8c109,60 232,139 329,218 19,15 34,27 51,41 21,16 33,31 54,45l7 8c84,55 262,272 332,369 99,135 183,285 252,449l89 261c32,110 44,250 57,293 28,85 91,149 214,135 51,-5 88,-27 114,-61 40,-51 39,-56 40,-144 0,-208 -115,-495 -192,-684l-86 -174c-11,-23 -18,-38 -30,-61 -84,-156 -252,-375 -380,-503l-130 -129c-251,-210 -340,-299 -681,-470 -341,-170 -695,-273 -1072,-329 -116,-17 -275,-17 -327,-24 -34,-5 -136,-5 -171,0 -355,47 -351,1 -771,112 -218,58 -320,90 -526,183 -45,20 -75,35 -118,57 -123,61 -217,120 -333,193l-300 225c-37,29 -59,63 -94,89z"/>
  <path class="fil1" d="M5026 9959l0 38c0,90 86,183 175,183l53 0c86,0 168,-89 168,-176l0 -53c0,-119 -180,-227 -339,-110 -29,22 -57,70 -57,118z"/>
  <path class="fil1" d="M5856 9951c0,131 53,234 191,234 256,0 264,-381 20,-398 -100,-7 -211,65 -211,164z"/>
  <path class="fil1" d="M7022 10119l7 -8c70,-103 51,-221 -22,-275 -141,-104 -331,-26 -329,153 3,180 187,226 288,173 17,-9 46,-30 56,-43z"/>
  <path class="fil2" d="M3838 8169c-11,0 -8,-3 -8,9 12,0 8,3 8,-9z"/>
  <polygon class="fil3" points="5643,7712 5635,7719 "/>
  <polygon class="fil4" points="7410,8016 7403,8009 "/>
  <polygon class="fil5" points="7510,8070 7502,8062 "/>
  <polygon class="fil6" points="7029,10111 7022,10119 "/>
  <polygon class="fil7" points="7951,8382 7944,8374 "/>
  <polygon class="fil8" points="9269,11353 9262,11360 "/>
  <polygon class="fil9" points="7685,11566 7677,11574 "/>
  <polygon class="fil10" points="7677,11574 7669,11581 "/>
  <polygon class="fil11" points="3624,11580 3624,11589 "/>
  <polygon class="fil4" points="4675,11947 4668,11939 "/>
  <polygon class="fil2" points="3319,11954 3312,11962 "/>
  <polygon class="fil5" points="7075,12236 7068,12229 "/>
  <polygon class="fil10" points="3197,12282 3190,12274 "/>
  <polygon class="fil12" points="4531,12290 4521,12290 "/>
  <polygon class="fil13" points="3860,12465 3852,12465 "/>
  <polygon class="fil12" points="8195,12830 8187,12823 "/>
  <polygon class="fil14" points="5247,19412 5238,19412 "/>
  <path class="fil1" d="M6557 5998l-9 0c-108,28 -377,14 -502,15l-294 -25c-59,-9 -120,-19 -182,-32 -235,-47 -288,-71 -502,-146l-218 -102c-197,-97 -244,-137 -401,-58 -166,82 -279,134 -483,157 -37,4 -57,8 -98,8 -48,-1 -72,7 -107,7 7,-30 63,-92 85,-120l106 -146c9,-14 13,-17 22,-31 63,-98 151,-274 80,-384 -27,-42 -61,-76 -93,-113l-180 -239c-263,-395 -371,-800 -356,-1305 10,-313 133,-679 285,-950 121,-216 165,-261 308,-415 84,-91 160,-180 264,-262 22,-17 34,-27 56,-43l183 -129c24,-16 32,-24 59,-40 25,-15 43,-28 65,-43 42,-28 90,-51 137,-76l7 -7 310 -133c75,-25 280,-99 338,-103l8 -8c34,0 63,-9 91,-15 29,-7 55,-12 88,-19 127,-25 254,-34 385,-49l416 1c372,50 335,21 731,138l243 84 293 141c231,134 187,109 394,262 24,18 43,38 63,51l8 8c70,48 222,213 287,283l152 199c73,117 99,142 168,290 14,30 20,49 35,78l97 254 7 8 50 239c16,104 12,155 74,216 98,96 227,63 294,-30 28,-40 26,-65 25,-128 -2,-82 -31,-174 -46,-244 -9,-45 -14,-76 -28,-117 -73,-219 -97,-312 -209,-523l-7 -7c-8,-29 -75,-135 -95,-165l-351 -441 -131 -128c-45,-44 -93,-83 -144,-123 -84,-66 -219,-163 -308,-217l-250 -138c-16,-8 -31,-13 -47,-23 -15,-9 -22,-15 -43,-25 -35,-14 -57,-26 -90,-40 -330,-136 -558,-212 -933,-254l-244 -23 -8 0c-415,0 -484,-24 -912,63 -90,18 -313,73 -391,105l-178 65c-178,67 -418,184 -577,291 -118,79 -314,221 -416,323 -23,24 -39,43 -66,64 -30,23 -30,33 -62,59l-385 484c-92,157 -177,330 -235,504 -48,148 -76,234 -107,389 -21,105 -13,136 -26,224 -2,15 -4,37 -5,63l0 134c3,108 9,226 14,280 5,43 5,73 10,112 10,90 39,221 64,309 53,183 206,531 313,685l209 287c38,81 -218,349 -313,411 -51,34 -91,72 -119,132 -29,62 -36,134 -10,203 12,32 21,54 42,80 13,15 53,51 69,60 182,101 681,44 875,0 171,-39 321,-118 366,-129 50,-13 141,48 179,65 670,298 1373,378 2106,255 142,-24 382,-58 436,-181 12,-28 16,-79 8,-116 -13,-59 -60,-112 -109,-136 -66,-32 -149,5 -207,20 -63,17 -137,31 -206,45 -60,12 -153,30 -222,30z"/>
  <path class="fil1" d="M9741 5754l-7 7c-27,50 -66,86 -99,130 -34,43 -65,83 -110,119 -311,241 -613,339 -1050,233 -248,-60 -463,-220 -608,-421 -81,-112 -145,-253 -180,-391 -63,-255 -33,-547 79,-769 14,-28 23,-50 39,-75 15,-25 29,-44 45,-69 68,-101 135,-159 221,-236 274,-245 714,-307 1068,-195 109,34 218,90 303,153 50,37 80,64 122,107 38,37 79,74 109,120l7 7c236,350 302,740 132,1137 -11,25 -21,53 -33,74 -11,20 -31,44 -38,69zm511 -899l0 -8c-1,-1 -57,-205 -92,-281 -40,-91 -78,-161 -132,-241 -93,-140 -233,-293 -369,-386 -65,-44 -94,-67 -168,-106 -306,-163 -668,-236 -1014,-151 -160,39 -133,30 -283,90 -170,68 -366,207 -496,342 -20,21 -25,33 -46,54 -209,209 -371,629 -371,938 0,142 3,237 30,351 56,232 102,386 252,586 12,17 24,36 39,52l187 194c46,46 105,87 162,120 206,123 349,200 602,236 143,20 138,18 259,8 101,-8 141,-4 265,-25 84,-15 215,-51 289,-85 194,-87 292,-153 451,-295l177 -204c121,-164 189,-315 244,-510 48,-173 47,-337 37,-511 -4,-59 -22,-117 -23,-168z"/>
  <path class="fil1" d="M9070 5670l9 0c75,0 157,-6 195,-94 36,-84 23,-159 -35,-226l-8 -8c-52,-77 -118,-97 -175,-182 59,-113 215,-141 235,-321 21,-185 -209,-239 -321,-138 -32,29 -60,60 -91,91 -39,38 -52,63 -98,93 -38,-20 -68,-51 -95,-87 -204,-264 -424,-132 -415,34 5,101 70,171 144,230 44,35 61,51 92,98 -71,106 -131,114 -186,187 -100,131 -54,319 133,324 155,4 234,-188 327,-237 83,55 127,140 198,191 33,23 57,27 91,45z"/>
  <path class="fil1" d="M6862 3575c0,71 2,117 51,170 105,114 360,60 360,-116 0,-64 -1,-119 -51,-170 -118,-121 -360,-48 -360,116z"/>
  <path class="fil1" d="M6001 3598c0,224 255,260 351,154 106,-117 63,-278 -54,-337 -127,-65 -297,20 -297,183z"/>
  <path class="fil1" d="M5506 3469l-8 -8c-47,-64 -195,-91 -298,-16 -83,62 -76,224 -9,300 103,117 331,69 359,-118 10,-69 -13,-112 -44,-158z"/>
  <polygon class="fil15" points="10252,4855 10252,4847 "/>
  <polygon class="fil8" points="9239,5350 9231,5342 "/>
  <polygon class="fil8" points="9079,5670 9070,5670 "/>
  <polygon class="fil16" points="9741,5754 9734,5761 "/>
  <polygon class="fil11" points="6557,5998 6548,5998 "/>
  <polygon class="fil17" points="8903,2989 8896,2981 "/>
  <polygon class="fil18" points="6420,818 6412,818 "/>
  <polygon class="fil5" points="5445,1275 5437,1283 "/>
  <polygon class="fil19" points="4789,1519 4782,1526 "/>
  <polygon class="fil5" points="8157,1877 8149,1869 "/>
  <polygon class="fil20" points="9063,2402 9056,2395 "/>
  <polygon class="fil21" points="5506,3469 5498,3461 "/>
  <polygon class="fil15" points="9680,4474 9673,4467 "/>
  <polygon class="fil8" points="3761,19952 3753,19944 "/>
  <path class="fil1" d="M20066 17015l0 361c-1,13 -2,22 -4,27 -22,74 1,66 -12,109 -12,40 -6,48 -12,72 -1,2 -2,3 -2,5l-8 30c-2,16 1,19 -3,36l-4 9c0,2 -1,3 -2,5l-4 21c-1,7 0,10 -2,18l-10 34c-1,6 -2,12 -3,17 -1,13 -2,20 -4,34l-61 185c0,1 -1,3 -1,5 -3,8 -3,11 -6,19l-12 27c-1,1 -2,3 -3,4l-110 263c-1,1 -4,6 -5,8 -1,1 -2,3 -2,4l-24 41c-12,20 7,-12 -4,8l-44 85c0,0 -9,16 -10,16l-34 49c-7,10 2,-5 -8,12 -47,85 -39,57 -68,99 -9,13 -7,13 -14,25 -3,6 -5,8 -10,16l-61 81c-29,27 -42,55 -58,70l-42 42c-7,9 -2,2 -8,12 -4,7 -1,4 -6,13 -15,24 -38,33 -56,53 -1,1 -2,2 -3,3l-145 145c-7,7 -2,3 -9,11 -14,17 -32,21 -47,36 -32,32 -35,28 -61,49 -9,7 -5,5 -10,9 -6,6 -13,15 -19,20l-64 46c-9,6 2,-2 -11,8 -9,6 -12,10 -21,17l-306 197c-34,13 -50,31 -81,48l-12 7c-7,4 -6,3 -13,6l-125 55c-2,1 -7,3 -9,4 0,0 -11,5 -13,7 -1,0 -3,1 -4,2l-20 12c-18,10 -9,7 -32,13l-30 9c-1,1 -3,2 -4,2l-206 84c-9,2 -19,3 -32,7 -1,1 -3,1 -4,2l-10 4c-1,0 -3,1 -4,1l-118 37c-77,29 -73,11 -115,27l-185 41c-13,4 7,5 -30,8 -20,1 -21,-2 -41,4 -26,7 7,4 -30,8l-71 13c-54,7 -160,-1 -199,13 -8,3 -23,5 -43,7l-420 0c-28,-1 -40,-7 -60,-12l-216 -16c-7,-2 4,-1 -15,-4l-265 -50c-7,-2 -11,-1 -18,-3 -1,0 -3,0 -5,0 -2,-1 -3,-1 -5,-2l-19 -7c-2,0 -3,-1 -5,-1l-72 -12c-2,0 -12,-4 -14,-5l-161 -52c-7,-2 -6,-2 -15,-4 -11,-3 -20,-3 -32,-7 -1,0 -3,-1 -5,-2l-114 -46c-22,-8 -12,-1 -33,-12l-154 -65c-18,-11 11,5 -8,-5l-96 -45c-20,-12 -37,-19 -54,-30l-80 43c-1,0 -3,2 -4,2l-59 25c-19,7 -9,1 -28,10 -9,5 -19,10 -26,13l-38 14c-1,0 -3,1 -5,2 -1,0 -3,1 -5,1l-316 70c-50,2 -20,12 -70,14 -27,0 -56,-5 -82,1 -21,5 -4,6 -29,10 -10,2 -27,1 -37,1 -44,0 -120,8 -158,-4 -22,-6 3,-7 -36,-9 -31,-2 -82,11 -109,-6l-7 -7c-55,1 -50,2 -76,-8 -1,0 -3,-1 -4,-2 -2,0 -3,-1 -5,-1 -26,-10 -40,-24 -65,-38 -25,-13 -31,-17 -47,-44l-21 -36c-19,-44 -20,-71 -20,-122l10 -61c0,-2 1,-3 1,-5l8 -24c13,-29 40,-51 61,-74l229 -203c1,-1 3,-2 4,-3 1,-1 2,-2 3,-3 1,-1 2,-2 3,-3l23 -35c1,-2 6,-7 9,-11 33,-34 59,-89 67,-106l4 -9c18,-34 24,-54 42,-62 -3,-28 -20,-36 -36,-54l-170 -230c0,-1 -1,-2 -2,-4 -1,-1 -2,-2 -3,-4l-9 -16c-1,-1 -2,-3 -3,-4 -3,-4 -8,-9 -9,-10l-24 -40c-1,0 -7,-11 -7,-12l-64 -111c-1,-1 -1,-2 -2,-4l-58 -116c0,-1 -1,-3 -2,-4l-4 -9c-36,-68 -22,-48 -50,-117 -1,-2 -4,-7 -4,-9 -1,-2 -1,-3 -2,-5 -1,-1 -1,-3 -2,-5l-23 -53c-1,-2 -1,-3 -2,-5l-14 -43c-4,-14 -3,-21 -9,-37l-17 -48c0,-1 -1,-3 -1,-4l-52 -194c-16,-51 -17,-108 -24,-162 -3,-17 -2,-9 -4,-15 -10,-31 -4,-62 -9,-94 -7,-45 -3,2 -11,-34 -9,-42 -2,-308 -2,-373 0,-41 10,-26 14,-70 2,-30 -5,-52 4,-80 6,-17 0,12 7,-18 1,-7 1,-10 1,-18l21 -153 58 -200c1,-1 1,-3 2,-4 0,-2 1,-4 1,-5 3,-7 3,-8 5,-15l34 -108c23,-57 40,-114 70,-168l29 -55c5,-11 5,-18 10,-28l140 -240c1,-1 2,-3 3,-4l174 -238c1,-1 2,-3 2,-4l324 -340c41,-26 48,-42 67,-55l47 -37c13,-13 11,-11 25,-19l74 -56c19,-20 15,-11 34,-24 1,-1 2,-2 3,-3l369 -223c1,-1 3,-2 4,-2l118 -56c4,-2 16,-9 17,-10l187 -76c1,-1 3,-2 4,-3l37 -14c2,-1 3,-1 5,-2 1,0 3,-1 5,-1l42 -16c35,-13 73,-17 110,-32l18 -8c1,0 3,-1 4,-2l61 -17c5,-2 12,-4 19,-6l183 -43c41,-5 67,-18 104,-24 13,-3 25,0 37,-2 46,-6 -3,-3 34,-11 20,-4 41,1 60,-4 2,0 3,-1 5,-2 30,-10 55,-4 87,-9 25,-4 8,-5 29,-10l159 -9c139,0 279,0 419,0l158 9c39,9 24,9 74,10 49,2 19,12 70,14l577 137c7,3 8,3 15,5l174 70c2,1 4,2 5,2l74 29c6,3 9,5 17,9l121 53c1,0 3,1 4,2 1,1 3,2 4,2l63 34c2,1 3,1 5,2l65 38c8,3 23,11 30,15l178 112c7,5 8,5 16,10l155 115c10,8 6,4 12,8l60 48c25,16 35,35 58,52l99 88c7,8 9,12 18,20l128 124 254 331c6,9 10,19 16,30 11,22 5,9 15,23l93 159c1,1 2,2 2,4 1,1 2,3 3,4 0,1 1,3 2,4l22 42c10,18 20,37 28,56l16 35c1,2 2,3 2,5l15 30c1,1 2,3 2,4l17 42c9,17 6,9 12,32l17 48c2,6 3,9 5,14 0,2 1,3 2,5l3 9c2,7 2,7 5,15l34 95c5,14 3,16 7,31l17 48c9,24 9,60 17,86l10 54c7,33 6,-5 11,34l25 142c1,6 1,12 2,18 2,80 10,78 12,105zm-3284 179c-23,34 -55,61 -84,90 -4,4 -3,3 -10,10l-226 224c-1,1 -2,3 -3,4l-25 26c-25,22 -166,156 -182,185 0,1 -4,10 -6,14 -1,1 -4,7 -7,12 -25,53 -13,108 18,160 8,14 22,23 35,29 16,8 19,17 47,24l28 5c1,0 3,1 4,1 19,5 52,-1 73,-7 37,-10 68,-48 92,-76l199 -200c52,-42 91,-96 137,-140 1,-1 12,-10 14,-12l79 -75c8,-8 5,-5 13,-13 9,-9 17,-14 23,-29l19 0c8,30 44,54 67,74l155 155c10,8 15,14 23,22l247 248c1,1 2,2 3,3l48 30c3,2 12,7 12,7 13,6 -1,2 14,6 35,10 82,5 114,-10 11,-5 18,-8 27,-12 16,-8 14,-5 25,-20 18,-26 49,-82 42,-114l-10 -29c-16,-79 -80,-109 -130,-167l-248 -247c-9,-11 -9,-10 -19,-20l-109 -104c-15,-14 -26,-35 -42,-41l421 -436c33,-37 79,-65 102,-109 1,-2 2,-3 3,-5l27 -76c1,-1 2,-6 2,-8l-6 -24c-3,-17 0,-24 -5,-41 -6,-19 -21,-36 -34,-50l-82 -40c-2,0 -3,-1 -5,-2 -2,0 -7,-3 -9,-4l-99 21c-25,12 -102,93 -120,113 -4,4 -7,7 -9,10l-29 29c-1,1 -2,2 -3,3l-125 126c-9,9 -11,11 -19,20 -1,1 -3,2 -4,3l-161 160c-23,20 -56,41 -64,72l-19 0c-6,-16 -5,-11 -16,-23 -2,-2 -10,-9 -10,-10l-515 -502c-26,-17 -67,-22 -93,-16 -23,5 -37,3 -57,15l-39 25c-12,12 -10,11 -16,22 -34,56 -36,45 -28,128 4,35 7,25 23,49l67 74c5,5 3,3 10,10l33 31c56,56 108,115 167,168l255 254z"/>
  <polygon class="fil8" points="9903,13734 9896,13726 "/>
  <path class="fil22" d="M19890 11860l-5 7c-12,14 -13,19 -23,35 -11,18 -16,20 -27,37 -59,84 -92,187 8,259 40,29 122,56 183,5 26,-22 43,-41 61,-65 20,-24 33,-49 55,-74 21,128 -19,277 -59,372 -69,164 -178,312 -333,410 -48,31 -122,71 -193,88 -159,39 -270,71 -429,36 -170,-38 -347,-152 -432,-129 -68,19 -149,146 -83,238 35,49 95,72 143,101 32,19 42,26 78,39l83 32c34,11 50,16 87,25 76,16 221,42 296,24l8 4c55,-12 137,-8 271,-41 87,-21 179,-63 250,-96 207,-99 433,-329 526,-547 26,-59 56,-140 72,-203 25,-103 38,-249 37,-353 24,9 22,12 42,27 90,66 179,90 254,-5 125,-155 -141,-326 -262,-436 -101,-92 -246,-264 -369,-140 -13,14 -24,23 -34,39l-90 133c-23,32 -33,55 -58,89 -7,8 -55,83 -57,89zm350 -1666l0 360c0,13 -2,22 -3,27 -23,74 0,66 -13,109 -12,40 -6,49 -12,72 0,2 -1,3 -2,5l-8 30c-1,16 1,20 -3,36l-4 9c0,2 -1,3 -1,5l-5 21c-1,7 0,10 -1,18l-11 35c-1,5 -1,11 -2,16 -2,13 -2,20 -5,35l-60 184c-1,1 -1,3 -2,5 -3,8 -3,11 -6,20l-12 26c-1,1 -2,3 -2,4l-111 263c-1,2 -4,6 -5,8 0,1 -1,3 -2,4l-23 41c-12,20 7,-12 -5,8l-44 85c0,0 -9,16 -9,17l-35 49c-6,9 2,-6 -8,11 -47,85 -39,57 -68,100 -8,12 -6,12 -14,25 -3,6 -5,8 -9,15l-62 81c-28,27 -42,55 -58,71l-42 41c-7,10 -2,2 -7,12 -5,7 -2,4 -7,13 -15,24 -37,33 -56,53 -1,1 -2,3 -3,4l-145 144c-7,8 -2,3 -8,11 -15,17 -32,21 -48,37 -31,31 -35,27 -61,48 -9,8 -5,5 -10,10 -5,5 -13,14 -18,19l-64 46c-10,7 1,-2 -12,8 -9,6 -12,11 -21,18l-305 196c-35,14 -50,31 -81,48l-13 7c-7,4 -6,3 -12,7l-126 55c-2,0 -7,3 -9,3 0,0 -10,6 -13,7 -1,1 -2,2 -4,2l-20 12c-18,10 -9,7 -32,13l-29 9c-2,1 -3,2 -5,3l-206 83c-8,2 -18,3 -31,7 -2,1 -3,2 -5,2l-9 4c-2,0 -3,1 -5,2l-118 36c-76,29 -72,12 -114,27l-185 41c-14,4 6,5 -31,8 -20,2 -21,-2 -41,4 -26,7 8,4 -30,8l-70 14c-55,6 -160,-1 -200,13 -8,3 -23,5 -43,6l-419 0c-29,-1 -41,-7 -61,-11l-216 -17c-7,-2 5,-1 -15,-4l-265 -50c-7,-2 -11,-1 -17,-2 -2,-1 -4,-1 -6,-1 -1,-1 -3,-1 -5,-2l-19 -7c-1,0 -3,-1 -5,-1l-72 -12c-1,0 -11,-4 -14,-5l-161 -52c-6,-2 -5,-2 -15,-4 -11,-3 -19,-3 -31,-7 -2,0 -4,-1 -5,-1l-115 -47c-21,-8 -11,-1 -33,-12l-153 -65c-19,-10 11,5 -9,-5l-96 -45c-20,-12 -37,-18 -54,-30l-80 43c-1,1 -2,2 -4,2l-59 25c-19,7 -9,2 -28,11 -9,4 -19,9 -26,12l-37 14c-2,1 -4,1 -5,2 -2,0 -3,1 -5,1l-316 70c-51,2 -21,12 -71,14 -26,1 -56,-5 -82,1 -20,6 -4,6 -29,10 -9,2 -27,2 -37,1 -44,0 -120,8 -158,-3 -21,-7 3,-7 -35,-10 -32,-2 -82,11 -110,-6l-6 -7c-56,2 -51,2 -76,-7 -2,-1 -3,-2 -5,-2 -1,-1 -3,-2 -4,-2 -27,-10 -40,-24 -66,-38 -25,-13 -31,-17 -46,-43l-21 -37c-20,-44 -20,-71 -21,-122l10 -61c1,-1 1,-3 2,-5l8 -24c13,-29 39,-51 61,-74l229 -202c1,-1 2,-3 3,-4 1,-1 2,-2 3,-3 1,-1 3,-2 3,-3l23 -35c1,-2 6,-7 9,-10 33,-35 59,-90 68,-107l4 -9c17,-33 23,-54 41,-61 -2,-29 -20,-37 -36,-55l-169 -230c-1,-1 -2,-2 -3,-3 -1,-2 -1,-3 -2,-4l-10 -17c0,-1 -2,-2 -2,-3 -3,-5 -9,-10 -9,-11l-25 -40c0,0 -6,-11 -7,-12l-63 -110c-1,-2 -2,-3 -3,-4l-57 -117c-1,-1 -2,-3 -2,-4l-5 -9c-36,-68 -22,-48 -50,-117 -1,-2 -3,-7 -4,-9 0,-1 -1,-3 -2,-5 0,-1 -1,-3 -1,-4l-24 -54c0,-1 -1,-3 -2,-5l-14 -43c-3,-14 -3,-21 -8,-37l-17 -47c-1,-2 -2,-4 -2,-5l-51 -193c-17,-52 -17,-108 -25,-163 -2,-17 -2,-9 -4,-15 -10,-31 -4,-61 -9,-94 -6,-45 -3,2 -11,-34 -9,-42 -1,-308 -2,-373 0,-41 10,-26 14,-70 2,-29 -5,-52 4,-79 6,-18 1,12 7,-19 2,-7 2,-10 2,-18l20 -153 59 -199c0,-2 1,-4 1,-5 1,-2 1,-3 2,-5 2,-6 2,-8 4,-15l34 -108c23,-57 41,-114 70,-168l29 -54c5,-12 5,-18 11,-29l140 -240c0,-1 2,-2 2,-3l174 -239c1,-1 2,-2 3,-4l323 -339c41,-26 48,-43 67,-56l47 -36c14,-14 11,-12 26,-20l73 -56c19,-20 15,-10 34,-24 1,0 3,-2 4,-2l369 -224c1,0 3,-1 4,-2l118 -56c3,-2 15,-9 16,-10l187 -76c2,-1 3,-2 4,-3l37 -14c2,-1 4,-1 5,-2 2,0 4,-1 5,-1l42 -16c36,-13 74,-17 110,-32l18 -8c2,0 3,-1 5,-2l60 -16c6,-2 13,-4 19,-7l183 -43c41,-4 67,-18 104,-24 13,-2 25,0 37,-2 46,-6 -3,-3 34,-11 20,-4 41,2 61,-4 1,0 3,-1 4,-2 31,-10 56,-3 88,-9 24,-4 8,-5 28,-10l159 -9c140,0 279,0 419,0l159 9c38,10 23,10 73,11 50,1 20,12 70,13l578 138c6,2 7,2 14,4l175 70c1,1 3,2 4,2l74 29c6,3 10,6 17,10l122 52c1,1 2,2 4,2 1,1 2,2 4,3l63 33c1,1 3,2 4,2l65 38c9,4 24,11 30,15l178 112c7,5 8,5 16,10l155 116c10,7 6,3 12,7l61 49c25,16 35,34 57,52l99 87c8,8 10,12 19,21l127 123 255 331c6,9 10,19 15,30 12,22 6,9 15,24l93 158c1,1 2,3 3,4 0,1 1,3 2,4 1,1 1,3 2,4l23 42c10,19 19,37 28,56l15 36c1,1 2,3 3,4l15 30c0,1 1,3 1,5l17 41c9,17 7,9 13,33l16 47c2,6 3,9 5,15 1,1 1,3 2,4l4 10c2,6 2,7 4,14l34 95c5,14 4,17 7,32l17 47c9,25 9,60 17,86l11 54c6,33 5,-5 10,34l26 142c1,6 1,12 1,18 2,80 10,78 12,106zm-1821 1887l0 0zm195 299l5 -8 5 -8 105 -161c131,-215 -90,-298 -167,-262 -83,40 -101,102 -143,140 -10,-38 1,-121 9,-150 28,-96 22,-101 73,-197 32,-62 44,-88 88,-145 7,-10 16,-18 25,-28 133,-159 319,-287 537,-308 133,-13 179,-13 308,13 107,21 174,63 261,101 101,44 213,12 241,-96 14,-54 6,-108 -38,-146 -163,-143 -470,-202 -677,-201 -235,1 -479,94 -639,210 -156,113 -328,295 -403,476 -10,24 -17,41 -27,64 -49,115 -111,310 -80,434l-25 6c-18,-54 -100,-102 -176,-89 -145,24 -197,163 -71,288 99,99 150,151 262,241 121,98 153,172 271,139 47,-14 91,-65 117,-102 10,-16 15,-28 26,-43l113 -168zm-2456 -2032l0 38c0,91 86,183 176,183l53 0c86,0 167,-89 167,-175l0 -53c0,-120 -180,-227 -338,-110 -29,21 -58,70 -58,117zm831 -7c0,130 53,234 190,234 257,-1 265,-382 21,-399 -101,-7 -211,66 -211,165zm1165 167l8 -8c69,-103 51,-220 -23,-274 -141,-104 -331,-27 -328,153 3,180 187,225 288,173 17,-9 46,-31 55,-44z"/>
  <path class="fil22" d="M8740 11105l-5 8c-11,13 -13,19 -23,34 -11,18 -16,21 -27,37 -59,85 -92,187 8,259 41,30 122,57 183,6 26,-22 43,-42 61,-65 20,-25 33,-49 55,-74 21,127 -19,277 -59,371 -69,165 -178,313 -333,411 -48,30 -122,70 -193,88 -159,39 -270,71 -429,36 -170,-38 -347,-153 -431,-129 -69,18 -150,145 -84,237 35,49 95,72 143,101 32,20 42,26 78,40l83 32c34,10 50,16 87,24 76,17 222,43 296,24l8 5c56,-13 137,-8 271,-41 87,-22 180,-63 250,-97 207,-99 433,-328 527,-546 25,-60 55,-140 71,-204 26,-102 38,-248 37,-353 24,9 22,13 42,28 90,66 179,90 254,-5 125,-156 -141,-326 -262,-437 -101,-92 -246,-264 -369,-139 -13,13 -24,23 -34,38l-90 133c-23,33 -32,56 -58,89 -6,9 -54,83 -57,89z"/>
  <path class="fil22" d="M7269 11327l0 0zm195 299l5 -8 5 -8 105 -162c132,-214 -90,-298 -167,-261 -83,40 -101,102 -143,140 -10,-38 2,-122 10,-150 27,-96 21,-101 72,-197 32,-62 44,-88 88,-146 7,-9 16,-17 25,-28 133,-158 319,-287 537,-308 134,-13 179,-12 308,13 107,22 174,63 261,101 101,45 214,13 242,-96 13,-54 5,-107 -39,-145 -163,-143 -470,-202 -677,-201 -235,1 -479,94 -639,209 -156,113 -328,296 -403,476 -10,24 -17,42 -27,64 -48,115 -111,310 -79,435l-26 6c-18,-55 -100,-103 -176,-90 -145,25 -197,164 -71,289 99,99 150,151 262,241 121,98 153,171 271,138 47,-13 92,-65 117,-102 10,-15 15,-27 27,-42l112 -168z"/>
  <polygon class="fil14" points="11759,6499 11751,6499 "/>
  <polygon class="fil23" points="14542,1323 14535,1330 "/>
  <path class="fil1" d="M20770 5034l0 -8c-1,-1 -57,-205 -92,-282 -40,-90 -78,-160 -132,-240 -93,-140 -234,-293 -369,-386 -65,-44 -94,-67 -168,-106 -46,-25 -94,-47 -142,-67l0 -298c-2,-28 -11,-26 -13,-107 0,-6 0,-12 -1,-18l-26 -145c-5,-40 -4,-1 -11,-35l-11 -54c-7,-27 -7,-63 -16,-88l-18 -48c-3,-15 -2,-18 -7,-32l-34 -96c-3,-8 -3,-9 -5,-15l-4 -10c0,-1 -1,-3 -2,-4 -2,-6 -2,-9 -5,-15l-17 -48c-6,-24 -3,-16 -12,-33l-17 -42c-1,-2 -1,-4 -2,-5l-15 -31c-1,-1 -2,-3 -2,-4l-16 -36c-9,-20 -19,-38 -29,-57l-23 -42c0,-2 -1,-3 -2,-5 -1,-1 -2,-3 -2,-4 -1,-1 -2,-3 -3,-4l-94 -161c-10,-15 -4,-1 -15,-24 -6,-10 -10,-21 -16,-30l-259 -336 -129 -126c-9,-9 -11,-12 -19,-21l-100 -88c-24,-18 -33,-37 -59,-53l-62 -50c-6,-4 -1,0 -12,-7l-157 -117c-8,-5 -9,-5 -16,-10l-181 -114c-6,-4 -22,-12 -30,-16l-66 -38c-2,-1 -3,-1 -5,-2l-64 -34c-1,-1 -3,-2 -4,-2 -1,-1 -3,-2 -4,-3l-124 -53c-7,-4 -11,-6 -16,-9l-76 -30c-1,0 -3,-1 -4,-2l-177 -71c-8,-2 -9,-2 -15,-5l-587 -140c-51,-1 -20,-12 -71,-13 -51,-1 -36,-1 -74,-11l-162 -9c-141,0 -283,0 -425,0l-161 9c-21,5 -5,6 -30,10 -32,6 -57,-1 -88,10 -2,0 -3,1 -5,2 -19,5 -41,-1 -61,4 -38,7 12,5 -35,11 -12,2 -24,-1 -37,1 -38,7 -64,21 -106,25l-186 44c-7,2 -14,5 -19,6l-62 18c-1,0 -3,1 -4,2l-19 7c-36,15 -75,19 -111,33l-43 16c-2,0 -3,1 -5,1 -1,1 -3,1 -5,2l-37 15c-2,0 -3,1 -5,2l-190 78c-1,0 -13,8 -16,10l-120 57c-1,0 -3,1 -4,2l-375 227c-1,1 -3,2 -4,3 -19,13 -15,3 -34,24l-75 56c-14,9 -12,6 -25,20l-48 37c-20,13 -27,30 -68,57l-329 345c-1,1 -2,3 -2,4l-177 242c-1,1 -2,2 -3,3l-142 244c-6,11 -5,17 -10,29l-30 55c-30,55 -47,113 -71,171l-34 110c-3,6 -3,8 -5,15 0,1 -1,3 -2,5 0,1 -1,3 -1,4l-59 203 -21 156c0,7 0,10 -2,18 -6,31 -1,0 -7,19 -9,27 -2,50 -4,80 -4,45 -14,30 -14,72 0,65 -8,335 2,378 8,37 4,-11 11,34 5,34 -1,65 9,96 2,6 2,-2 4,16 8,55 8,112 25,164l52 197c1,1 1,3 2,4l17 49c5,16 5,23 9,37l14 44c1,2 1,3 2,5l24 54c1,2 1,4 2,5 0,2 1,4 1,5 1,2 3,7 4,9 29,70 15,50 51,119l5 9c0,1 1,3 2,4l58 118c1,2 2,3 3,5l64 112c1,0 7,11 7,12l25 40c1,1 6,7 9,11 1,1 2,3 3,4l10 16c0,2 1,3 2,5 1,1 2,2 3,3l172 234c16,18 34,26 36,55 -18,7 -24,28 -42,63l-4 9c-8,17 -35,72 -68,108 -4,3 -8,8 -10,10l-23 36c-1,1 -2,2 -3,3 -1,1 -2,2 -3,3 -1,1 -3,3 -4,4l-232 205c-22,24 -49,46 -62,75l-8 25c-1,2 -1,3 -2,5l-10 62c0,51 1,79 21,123l21 38c16,26 22,31 47,44 26,14 40,28 67,38 1,1 3,2 5,2 1,1 3,1 4,2 26,10 21,9 77,8l7 7c28,17 79,4 111,6 39,3 14,3 36,10 39,11 116,3 160,3 11,1 29,1 39,-1 24,-4 8,-5 29,-10 26,-6 56,-1 83,-1 50,-2 20,-13 71,-14l322 -71c1,-1 3,-1 5,-2 1,0 3,-1 5,-1l38 -15c7,-2 17,-8 26,-12 19,-9 9,-4 29,-11l60 -25c1,-1 2,-2 4,-3l81 -43c17,12 34,18 54,30l98 46c20,10 -10,-5 9,5l156 66c22,11 11,5 33,13l117 47c1,0 3,1 4,1 13,4 22,5 33,7 9,2 8,2 15,5l163 52c3,1 13,5 15,5l73 12c2,1 3,1 5,2l19 7c2,0 3,1 5,1 2,1 4,1 6,1 6,1 10,1 17,2l269 52c20,2 9,1 16,4l219 16c21,5 33,11 62,12l425 0c21,-2 36,-4 44,-7 40,-14 148,-7 203,-13l71 -13c38,-5 5,-2 31,-9 20,-6 21,-2 42,-4 37,-3 17,-4 30,-8l188 -41c43,-16 39,1 117,-28l119 -37c2,-1 4,-1 5,-2l10 -4c1,0 3,-1 4,-1 13,-5 23,-6 32,-8l209 -85c2,0 3,-1 5,-2l30 -9c13,-4 16,-5 19,-6l170 177c46,46 105,86 162,120 206,123 349,200 602,235 142,21 138,19 259,9 101,-8 141,-4 264,-25 85,-15 216,-51 289,-85 195,-87 293,-153 451,-295l178 -204c121,-164 189,-315 244,-510 48,-173 47,-337 37,-512 -4,-58 -22,-116 -23,-167zm-1182 815l9 0c75,0 157,-6 195,-94 36,-84 23,-159 -35,-226l-8 -8c-52,-77 -118,-97 -175,-182 59,-113 215,-142 235,-321 21,-185 -209,-239 -321,-138 -32,28 -60,60 -91,91 -39,38 -52,63 -98,93 -38,-20 -68,-51 -95,-87 -205,-264 -424,-132 -415,34 5,101 70,171 144,230 44,35 61,51 92,98 -71,106 -131,114 -186,186 -100,132 -54,320 133,324 155,5 234,-187 327,-236 83,55 127,140 198,190 33,24 57,28 91,46zm-1559 243l9 4c69,30 146,58 216,-7 67,-62 86,-135 60,-220l-4 -10c-1,-7 -2,-14 -4,-20 -20,-42 -38,-85 -53,-129 -12,-26 -22,-54 -28,-90l0 0 -2 -10c-64,-255 -34,-546 78,-769 14,-28 23,-49 39,-75 16,-25 30,-44 46,-68 68,-102 134,-160 221,-237 163,-146 386,-232 614,-250l2 0c128,-15 253,60 399,-50 124,-94 64,-251 -46,-310 -87,-16 -176,-25 -265,-25 -6,0 -11,0 -17,0 -94,1 -188,12 -282,35 -160,39 -133,31 -283,91 -169,67 -366,206 -496,341 -20,21 -25,33 -45,54 -209,210 -372,629 -372,939 0,142 3,236 31,350 17,74 34,140 53,202 6,17 12,34 17,51 17,49 37,97 62,144 16,22 32,35 50,59zm-649 -2338c0,71 2,116 51,170 105,114 360,60 360,-117 0,-63 -1,-118 -51,-169 -118,-121 -360,-48 -360,116zm-861 23c0,224 255,260 351,154 106,-117 62,-278 -54,-337 -127,-66 -297,20 -297,183zm-496 -130l-7 -7c-47,-64 -195,-91 -298,-16 -83,62 -76,223 -9,300 102,117 331,68 359,-118 10,-70 -14,-112 -45,-159z"/>
  <polygon class="fil15" points="19085,4788 19085,4780 "/>
  <polygon class="fil18" points="15252,751 15244,751 "/>
  <polygon class="fil5" points="14277,1208 14270,1216 "/>
 </g>
</svg>
